G04 #@! TF.GenerationSoftware,KiCad,Pcbnew,8.0.0*
G04 #@! TF.CreationDate,2024-03-06T16:50:21+00:00*
G04 #@! TF.ProjectId,cyclops,6379636c-6f70-4732-9e6b-696361645f70,rev?*
G04 #@! TF.SameCoordinates,Original*
G04 #@! TF.FileFunction,Copper,L2,Bot*
G04 #@! TF.FilePolarity,Positive*
%FSLAX46Y46*%
G04 Gerber Fmt 4.6, Leading zero omitted, Abs format (unit mm)*
G04 Created by KiCad (PCBNEW 8.0.0) date 2024-03-06 16:50:21*
%MOMM*%
%LPD*%
G01*
G04 APERTURE LIST*
G04 #@! TA.AperFunction,ComponentPad*
%ADD10O,1.200000X2.000000*%
G04 #@! TD*
G04 #@! TA.AperFunction,ComponentPad*
%ADD11R,1.700000X1.700000*%
G04 #@! TD*
G04 #@! TA.AperFunction,ComponentPad*
%ADD12O,1.700000X1.700000*%
G04 #@! TD*
G04 APERTURE END LIST*
D10*
X149987000Y-95708000D03*
X147447000Y-95708000D03*
X144907000Y-95708000D03*
X142367000Y-95708000D03*
X139827000Y-95708000D03*
X137287000Y-95708000D03*
X137287000Y-83108000D03*
X139827000Y-83108000D03*
X142367000Y-83108000D03*
X144907000Y-83108000D03*
X147447000Y-83108000D03*
X149987000Y-83108000D03*
D11*
X118237000Y-74145001D03*
D12*
X118237000Y-71605001D03*
X120777000Y-74145001D03*
X120777000Y-71605001D03*
X123317000Y-74145001D03*
X123317000Y-71605001D03*
X125857000Y-74145001D03*
X125857000Y-71605001D03*
X128397000Y-74145001D03*
X128397000Y-71605001D03*
X130937000Y-74145001D03*
X130937000Y-71605001D03*
X133477000Y-74145001D03*
X133477000Y-71605001D03*
X136017000Y-74145001D03*
X136017000Y-71605001D03*
X138557000Y-74145001D03*
X138557000Y-71605001D03*
X141097000Y-74145001D03*
X141097000Y-71605001D03*
X143637000Y-74145001D03*
X143637000Y-71605001D03*
X146177000Y-74145001D03*
X146177000Y-71605001D03*
X148717000Y-74145001D03*
X148717000Y-71605001D03*
X151257000Y-74145001D03*
X151257000Y-71605001D03*
X153797000Y-74145001D03*
X153797000Y-71605001D03*
X156337000Y-74145001D03*
X156337000Y-71605001D03*
X158877000Y-74145001D03*
X158877000Y-71605001D03*
X161417000Y-74145001D03*
X161417000Y-71605001D03*
X163957000Y-74145001D03*
X163957000Y-71605001D03*
X166497000Y-74145001D03*
X166497000Y-71605001D03*
X166497000Y-71605001D03*
X166497000Y-74145001D03*
X163957000Y-71605001D03*
X163957000Y-74145001D03*
X161417000Y-71605001D03*
X161417000Y-74145001D03*
X158877000Y-71605001D03*
X158877000Y-74145001D03*
X156337000Y-71605001D03*
X156337000Y-74145001D03*
X153797000Y-71605001D03*
X153797000Y-74145001D03*
X151257000Y-71605001D03*
X151257000Y-74145001D03*
X148717000Y-71605001D03*
X148717000Y-74145001D03*
X146177000Y-71605001D03*
X146177000Y-74145001D03*
X143637000Y-71605001D03*
X143637000Y-74145001D03*
X141097000Y-71605001D03*
X141097000Y-74145001D03*
X138557000Y-71605001D03*
X138557000Y-74145001D03*
X136017000Y-71605001D03*
X136017000Y-74145001D03*
X133477000Y-71605001D03*
X133477000Y-74145001D03*
X130937000Y-71605001D03*
X130937000Y-74145001D03*
X128397000Y-71605001D03*
X128397000Y-74145001D03*
X125857000Y-71605001D03*
X125857000Y-74145001D03*
X123317000Y-71605001D03*
X123317000Y-74145001D03*
X120777000Y-71605001D03*
X120777000Y-74145001D03*
X118237000Y-71605001D03*
D11*
X118237000Y-74145001D03*
M02*
