M48
; DRILL file {KiCad 8.0.0} date 2024-03-06T16:56:51+0000
; FORMAT={-:-/ absolute / inch / decimal}
; #@! TF.CreationDate,2024-03-06T16:56:51+00:00
; #@! TF.GenerationSoftware,Kicad,Pcbnew,8.0.0
; #@! TF.FileFunction,MixedPlating,1,2
FMAT,2
INCH
; #@! TA.AperFunction,Plated,PTH,ComponentDrill
T1C0.0315
; #@! TA.AperFunction,Plated,PTH,ComponentDrill
T2C0.0394
; #@! TA.AperFunction,NonPlated,NPTH,ComponentDrill
T3C0.1083
%
G90
G05
T1
X5.405Y-3.272
X5.405Y-3.768
X5.505Y-3.272
X5.505Y-3.768
X5.605Y-3.272
X5.605Y-3.768
X5.705Y-3.272
X5.705Y-3.768
X5.805Y-3.272
X5.805Y-3.768
X5.905Y-3.272
X5.905Y-3.768
T2
X4.655Y-2.8191
X4.655Y-2.8191
X4.655Y-2.9191
X4.655Y-2.9191
X4.755Y-2.8191
X4.755Y-2.8191
X4.755Y-2.9191
X4.755Y-2.9191
X4.855Y-2.8191
X4.855Y-2.8191
X4.855Y-2.9191
X4.855Y-2.9191
X4.955Y-2.8191
X4.955Y-2.8191
X4.955Y-2.9191
X4.955Y-2.9191
X5.055Y-2.8191
X5.055Y-2.8191
X5.055Y-2.9191
X5.055Y-2.9191
X5.155Y-2.8191
X5.155Y-2.8191
X5.155Y-2.9191
X5.155Y-2.9191
X5.255Y-2.8191
X5.255Y-2.8191
X5.255Y-2.9191
X5.255Y-2.9191
X5.355Y-2.8191
X5.355Y-2.8191
X5.355Y-2.9191
X5.355Y-2.9191
X5.455Y-2.8191
X5.455Y-2.8191
X5.455Y-2.9191
X5.455Y-2.9191
X5.555Y-2.8191
X5.555Y-2.8191
X5.555Y-2.9191
X5.555Y-2.9191
X5.655Y-2.8191
X5.655Y-2.8191
X5.655Y-2.9191
X5.655Y-2.9191
X5.755Y-2.8191
X5.755Y-2.8191
X5.755Y-2.9191
X5.755Y-2.9191
X5.855Y-2.8191
X5.855Y-2.8191
X5.855Y-2.9191
X5.855Y-2.9191
X5.955Y-2.8191
X5.955Y-2.8191
X5.955Y-2.9191
X5.955Y-2.9191
X6.055Y-2.8191
X6.055Y-2.8191
X6.055Y-2.9191
X6.055Y-2.9191
X6.155Y-2.8191
X6.155Y-2.8191
X6.155Y-2.9191
X6.155Y-2.9191
X6.255Y-2.8191
X6.255Y-2.8191
X6.255Y-2.9191
X6.255Y-2.9191
X6.355Y-2.8191
X6.355Y-2.8191
X6.355Y-2.9191
X6.355Y-2.9191
X6.455Y-2.8191
X6.455Y-2.8191
X6.455Y-2.9191
X6.455Y-2.9191
X6.555Y-2.8191
X6.555Y-2.8191
X6.555Y-2.9191
X6.555Y-2.9191
T3
X4.4633Y-2.8691
X4.4633Y-3.7746
X6.7467Y-2.8691
X6.7467Y-3.7746
M30
