G04 #@! TF.GenerationSoftware,KiCad,Pcbnew,8.0.0*
G04 #@! TF.CreationDate,2024-03-06T16:50:22+00:00*
G04 #@! TF.ProjectId,cyclops,6379636c-6f70-4732-9e6b-696361645f70,rev?*
G04 #@! TF.SameCoordinates,Original*
G04 #@! TF.FileFunction,Legend,Top*
G04 #@! TF.FilePolarity,Positive*
%FSLAX46Y46*%
G04 Gerber Fmt 4.6, Leading zero omitted, Abs format (unit mm)*
G04 Created by KiCad (PCBNEW 8.0.0) date 2024-03-06 16:50:22*
%MOMM*%
%LPD*%
G01*
G04 APERTURE LIST*
%ADD10C,0.150000*%
%ADD11C,0.120000*%
G04 APERTURE END LIST*
D10*
X157132180Y-88646095D02*
X156322657Y-88646095D01*
X156322657Y-88646095D02*
X156227419Y-88693714D01*
X156227419Y-88693714D02*
X156179800Y-88741333D01*
X156179800Y-88741333D02*
X156132180Y-88836571D01*
X156132180Y-88836571D02*
X156132180Y-89027047D01*
X156132180Y-89027047D02*
X156179800Y-89122285D01*
X156179800Y-89122285D02*
X156227419Y-89169904D01*
X156227419Y-89169904D02*
X156322657Y-89217523D01*
X156322657Y-89217523D02*
X157132180Y-89217523D01*
X156132180Y-90217523D02*
X156132180Y-89646095D01*
X156132180Y-89931809D02*
X157132180Y-89931809D01*
X157132180Y-89931809D02*
X156989323Y-89836571D01*
X156989323Y-89836571D02*
X156894085Y-89741333D01*
X156894085Y-89741333D02*
X156846466Y-89646095D01*
X115361819Y-73208334D02*
X116076104Y-73208334D01*
X116076104Y-73208334D02*
X116218961Y-73255953D01*
X116218961Y-73255953D02*
X116314200Y-73351191D01*
X116314200Y-73351191D02*
X116361819Y-73494048D01*
X116361819Y-73494048D02*
X116361819Y-73589286D01*
X115457057Y-72779762D02*
X115409438Y-72732143D01*
X115409438Y-72732143D02*
X115361819Y-72636905D01*
X115361819Y-72636905D02*
X115361819Y-72398810D01*
X115361819Y-72398810D02*
X115409438Y-72303572D01*
X115409438Y-72303572D02*
X115457057Y-72255953D01*
X115457057Y-72255953D02*
X115552295Y-72208334D01*
X115552295Y-72208334D02*
X115647533Y-72208334D01*
X115647533Y-72208334D02*
X115790390Y-72255953D01*
X115790390Y-72255953D02*
X116361819Y-72827381D01*
X116361819Y-72827381D02*
X116361819Y-72208334D01*
X115361819Y-73208334D02*
X116076104Y-73208334D01*
X116076104Y-73208334D02*
X116218961Y-73255953D01*
X116218961Y-73255953D02*
X116314200Y-73351191D01*
X116314200Y-73351191D02*
X116361819Y-73494048D01*
X116361819Y-73494048D02*
X116361819Y-73589286D01*
X115457057Y-72779762D02*
X115409438Y-72732143D01*
X115409438Y-72732143D02*
X115361819Y-72636905D01*
X115361819Y-72636905D02*
X115361819Y-72398810D01*
X115361819Y-72398810D02*
X115409438Y-72303572D01*
X115409438Y-72303572D02*
X115457057Y-72255953D01*
X115457057Y-72255953D02*
X115552295Y-72208334D01*
X115552295Y-72208334D02*
X115647533Y-72208334D01*
X115647533Y-72208334D02*
X115790390Y-72255953D01*
X115790390Y-72255953D02*
X116361819Y-72827381D01*
X116361819Y-72827381D02*
X116361819Y-72208334D01*
D11*
X131687000Y-81608000D02*
X131687000Y-97207999D01*
X131687000Y-97207999D02*
X155587000Y-97208000D01*
X155227000Y-86808001D02*
X155587000Y-86808001D01*
X155227000Y-92008000D02*
X155227000Y-86808001D01*
X155587000Y-81608001D02*
X131687000Y-81608000D01*
X155587000Y-86808001D02*
X155587000Y-81608001D01*
X155587000Y-92008000D02*
X155227000Y-92008000D01*
X155587000Y-97208000D02*
X155587000Y-92008000D01*
X116907000Y-75475001D02*
X116907000Y-74145001D01*
X118237000Y-75475001D02*
X116907000Y-75475001D01*
X119507000Y-75475001D02*
X167827000Y-75475001D01*
X119507000Y-75475001D02*
X119507000Y-72875001D01*
X167827000Y-75475001D02*
X167827000Y-70275001D01*
X116907000Y-72875001D02*
X116907000Y-70275001D01*
X119507000Y-72875001D02*
X116907000Y-72875001D01*
X116907000Y-70275001D02*
X167827000Y-70275001D01*
X167827000Y-75475001D02*
X167827000Y-70275001D01*
X119507000Y-75475001D02*
X167827000Y-75475001D01*
X119507000Y-75475001D02*
X119507000Y-72875001D01*
X119507000Y-72875001D02*
X116907000Y-72875001D01*
X118237000Y-75475001D02*
X116907000Y-75475001D01*
X116907000Y-75475001D02*
X116907000Y-74145001D01*
X116907000Y-72875001D02*
X116907000Y-70275001D01*
X116907000Y-70275001D02*
X167827000Y-70275001D01*
M02*
