G04 #@! TF.GenerationSoftware,KiCad,Pcbnew,8.0.0*
G04 #@! TF.CreationDate,2024-03-06T16:50:22+00:00*
G04 #@! TF.ProjectId,cyclops,6379636c-6f70-4732-9e6b-696361645f70,rev?*
G04 #@! TF.SameCoordinates,Original*
G04 #@! TF.FileFunction,Other,Comment*
%FSLAX46Y46*%
G04 Gerber Fmt 4.6, Leading zero omitted, Abs format (unit mm)*
G04 Created by KiCad (PCBNEW 8.0.0) date 2024-03-06 16:50:22*
%MOMM*%
%LPD*%
G01*
G04 APERTURE LIST*
%ADD10C,0.150000*%
G04 APERTURE END LIST*
D10*
X118251398Y-53782243D02*
X118465684Y-53853671D01*
X118465684Y-53853671D02*
X118822826Y-53853671D01*
X118822826Y-53853671D02*
X118965684Y-53782243D01*
X118965684Y-53782243D02*
X119037112Y-53710814D01*
X119037112Y-53710814D02*
X119108541Y-53567957D01*
X119108541Y-53567957D02*
X119108541Y-53425100D01*
X119108541Y-53425100D02*
X119037112Y-53282243D01*
X119037112Y-53282243D02*
X118965684Y-53210814D01*
X118965684Y-53210814D02*
X118822826Y-53139385D01*
X118822826Y-53139385D02*
X118537112Y-53067957D01*
X118537112Y-53067957D02*
X118394255Y-52996528D01*
X118394255Y-52996528D02*
X118322826Y-52925100D01*
X118322826Y-52925100D02*
X118251398Y-52782243D01*
X118251398Y-52782243D02*
X118251398Y-52639385D01*
X118251398Y-52639385D02*
X118322826Y-52496528D01*
X118322826Y-52496528D02*
X118394255Y-52425100D01*
X118394255Y-52425100D02*
X118537112Y-52353671D01*
X118537112Y-52353671D02*
X118894255Y-52353671D01*
X118894255Y-52353671D02*
X119108541Y-52425100D01*
X120322826Y-53782243D02*
X120179969Y-53853671D01*
X120179969Y-53853671D02*
X119894255Y-53853671D01*
X119894255Y-53853671D02*
X119751397Y-53782243D01*
X119751397Y-53782243D02*
X119679969Y-53639385D01*
X119679969Y-53639385D02*
X119679969Y-53067957D01*
X119679969Y-53067957D02*
X119751397Y-52925100D01*
X119751397Y-52925100D02*
X119894255Y-52853671D01*
X119894255Y-52853671D02*
X120179969Y-52853671D01*
X120179969Y-52853671D02*
X120322826Y-52925100D01*
X120322826Y-52925100D02*
X120394255Y-53067957D01*
X120394255Y-53067957D02*
X120394255Y-53210814D01*
X120394255Y-53210814D02*
X119679969Y-53353671D01*
X121251397Y-53853671D02*
X121108540Y-53782243D01*
X121108540Y-53782243D02*
X121037111Y-53639385D01*
X121037111Y-53639385D02*
X121037111Y-52353671D01*
X122394254Y-53782243D02*
X122251397Y-53853671D01*
X122251397Y-53853671D02*
X121965683Y-53853671D01*
X121965683Y-53853671D02*
X121822825Y-53782243D01*
X121822825Y-53782243D02*
X121751397Y-53639385D01*
X121751397Y-53639385D02*
X121751397Y-53067957D01*
X121751397Y-53067957D02*
X121822825Y-52925100D01*
X121822825Y-52925100D02*
X121965683Y-52853671D01*
X121965683Y-52853671D02*
X122251397Y-52853671D01*
X122251397Y-52853671D02*
X122394254Y-52925100D01*
X122394254Y-52925100D02*
X122465683Y-53067957D01*
X122465683Y-53067957D02*
X122465683Y-53210814D01*
X122465683Y-53210814D02*
X121751397Y-53353671D01*
X123751397Y-53782243D02*
X123608539Y-53853671D01*
X123608539Y-53853671D02*
X123322825Y-53853671D01*
X123322825Y-53853671D02*
X123179968Y-53782243D01*
X123179968Y-53782243D02*
X123108539Y-53710814D01*
X123108539Y-53710814D02*
X123037111Y-53567957D01*
X123037111Y-53567957D02*
X123037111Y-53139385D01*
X123037111Y-53139385D02*
X123108539Y-52996528D01*
X123108539Y-52996528D02*
X123179968Y-52925100D01*
X123179968Y-52925100D02*
X123322825Y-52853671D01*
X123322825Y-52853671D02*
X123608539Y-52853671D01*
X123608539Y-52853671D02*
X123751397Y-52925100D01*
X124179968Y-52853671D02*
X124751396Y-52853671D01*
X124394253Y-52353671D02*
X124394253Y-53639385D01*
X124394253Y-53639385D02*
X124465682Y-53782243D01*
X124465682Y-53782243D02*
X124608539Y-53853671D01*
X124608539Y-53853671D02*
X124751396Y-53853671D01*
X126608539Y-53853671D02*
X126465682Y-53782243D01*
X126465682Y-53782243D02*
X126394253Y-53710814D01*
X126394253Y-53710814D02*
X126322825Y-53567957D01*
X126322825Y-53567957D02*
X126322825Y-53139385D01*
X126322825Y-53139385D02*
X126394253Y-52996528D01*
X126394253Y-52996528D02*
X126465682Y-52925100D01*
X126465682Y-52925100D02*
X126608539Y-52853671D01*
X126608539Y-52853671D02*
X126822825Y-52853671D01*
X126822825Y-52853671D02*
X126965682Y-52925100D01*
X126965682Y-52925100D02*
X127037111Y-52996528D01*
X127037111Y-52996528D02*
X127108539Y-53139385D01*
X127108539Y-53139385D02*
X127108539Y-53567957D01*
X127108539Y-53567957D02*
X127037111Y-53710814D01*
X127037111Y-53710814D02*
X126965682Y-53782243D01*
X126965682Y-53782243D02*
X126822825Y-53853671D01*
X126822825Y-53853671D02*
X126608539Y-53853671D01*
X127751396Y-52853671D02*
X127751396Y-53853671D01*
X127751396Y-52996528D02*
X127822825Y-52925100D01*
X127822825Y-52925100D02*
X127965682Y-52853671D01*
X127965682Y-52853671D02*
X128179968Y-52853671D01*
X128179968Y-52853671D02*
X128322825Y-52925100D01*
X128322825Y-52925100D02*
X128394254Y-53067957D01*
X128394254Y-53067957D02*
X128394254Y-53853671D01*
X129679968Y-53782243D02*
X129537111Y-53853671D01*
X129537111Y-53853671D02*
X129251397Y-53853671D01*
X129251397Y-53853671D02*
X129108539Y-53782243D01*
X129108539Y-53782243D02*
X129037111Y-53639385D01*
X129037111Y-53639385D02*
X129037111Y-53067957D01*
X129037111Y-53067957D02*
X129108539Y-52925100D01*
X129108539Y-52925100D02*
X129251397Y-52853671D01*
X129251397Y-52853671D02*
X129537111Y-52853671D01*
X129537111Y-52853671D02*
X129679968Y-52925100D01*
X129679968Y-52925100D02*
X129751397Y-53067957D01*
X129751397Y-53067957D02*
X129751397Y-53210814D01*
X129751397Y-53210814D02*
X129037111Y-53353671D01*
X131751396Y-53853671D02*
X131608539Y-53782243D01*
X131608539Y-53782243D02*
X131537110Y-53710814D01*
X131537110Y-53710814D02*
X131465682Y-53567957D01*
X131465682Y-53567957D02*
X131465682Y-53139385D01*
X131465682Y-53139385D02*
X131537110Y-52996528D01*
X131537110Y-52996528D02*
X131608539Y-52925100D01*
X131608539Y-52925100D02*
X131751396Y-52853671D01*
X131751396Y-52853671D02*
X131965682Y-52853671D01*
X131965682Y-52853671D02*
X132108539Y-52925100D01*
X132108539Y-52925100D02*
X132179968Y-52996528D01*
X132179968Y-52996528D02*
X132251396Y-53139385D01*
X132251396Y-53139385D02*
X132251396Y-53567957D01*
X132251396Y-53567957D02*
X132179968Y-53710814D01*
X132179968Y-53710814D02*
X132108539Y-53782243D01*
X132108539Y-53782243D02*
X131965682Y-53853671D01*
X131965682Y-53853671D02*
X131751396Y-53853671D01*
X132679968Y-52853671D02*
X133251396Y-52853671D01*
X132894253Y-53853671D02*
X132894253Y-52567957D01*
X132894253Y-52567957D02*
X132965682Y-52425100D01*
X132965682Y-52425100D02*
X133108539Y-52353671D01*
X133108539Y-52353671D02*
X133251396Y-52353671D01*
X134679968Y-52853671D02*
X135251396Y-52853671D01*
X134894253Y-52353671D02*
X134894253Y-53639385D01*
X134894253Y-53639385D02*
X134965682Y-53782243D01*
X134965682Y-53782243D02*
X135108539Y-53853671D01*
X135108539Y-53853671D02*
X135251396Y-53853671D01*
X135751396Y-53853671D02*
X135751396Y-52353671D01*
X136394254Y-53853671D02*
X136394254Y-53067957D01*
X136394254Y-53067957D02*
X136322825Y-52925100D01*
X136322825Y-52925100D02*
X136179968Y-52853671D01*
X136179968Y-52853671D02*
X135965682Y-52853671D01*
X135965682Y-52853671D02*
X135822825Y-52925100D01*
X135822825Y-52925100D02*
X135751396Y-52996528D01*
X137679968Y-53782243D02*
X137537111Y-53853671D01*
X137537111Y-53853671D02*
X137251397Y-53853671D01*
X137251397Y-53853671D02*
X137108539Y-53782243D01*
X137108539Y-53782243D02*
X137037111Y-53639385D01*
X137037111Y-53639385D02*
X137037111Y-53067957D01*
X137037111Y-53067957D02*
X137108539Y-52925100D01*
X137108539Y-52925100D02*
X137251397Y-52853671D01*
X137251397Y-52853671D02*
X137537111Y-52853671D01*
X137537111Y-52853671D02*
X137679968Y-52925100D01*
X137679968Y-52925100D02*
X137751397Y-53067957D01*
X137751397Y-53067957D02*
X137751397Y-53210814D01*
X137751397Y-53210814D02*
X137037111Y-53353671D01*
X138322825Y-53782243D02*
X138465682Y-53853671D01*
X138465682Y-53853671D02*
X138751396Y-53853671D01*
X138751396Y-53853671D02*
X138894253Y-53782243D01*
X138894253Y-53782243D02*
X138965682Y-53639385D01*
X138965682Y-53639385D02*
X138965682Y-53567957D01*
X138965682Y-53567957D02*
X138894253Y-53425100D01*
X138894253Y-53425100D02*
X138751396Y-53353671D01*
X138751396Y-53353671D02*
X138537111Y-53353671D01*
X138537111Y-53353671D02*
X138394253Y-53282243D01*
X138394253Y-53282243D02*
X138322825Y-53139385D01*
X138322825Y-53139385D02*
X138322825Y-53067957D01*
X138322825Y-53067957D02*
X138394253Y-52925100D01*
X138394253Y-52925100D02*
X138537111Y-52853671D01*
X138537111Y-52853671D02*
X138751396Y-52853671D01*
X138751396Y-52853671D02*
X138894253Y-52925100D01*
X140179968Y-53782243D02*
X140037111Y-53853671D01*
X140037111Y-53853671D02*
X139751397Y-53853671D01*
X139751397Y-53853671D02*
X139608539Y-53782243D01*
X139608539Y-53782243D02*
X139537111Y-53639385D01*
X139537111Y-53639385D02*
X139537111Y-53067957D01*
X139537111Y-53067957D02*
X139608539Y-52925100D01*
X139608539Y-52925100D02*
X139751397Y-52853671D01*
X139751397Y-52853671D02*
X140037111Y-52853671D01*
X140037111Y-52853671D02*
X140179968Y-52925100D01*
X140179968Y-52925100D02*
X140251397Y-53067957D01*
X140251397Y-53067957D02*
X140251397Y-53210814D01*
X140251397Y-53210814D02*
X139537111Y-53353671D01*
X142037110Y-53853671D02*
X142037110Y-52353671D01*
X142037110Y-52925100D02*
X142179968Y-52853671D01*
X142179968Y-52853671D02*
X142465682Y-52853671D01*
X142465682Y-52853671D02*
X142608539Y-52925100D01*
X142608539Y-52925100D02*
X142679968Y-52996528D01*
X142679968Y-52996528D02*
X142751396Y-53139385D01*
X142751396Y-53139385D02*
X142751396Y-53567957D01*
X142751396Y-53567957D02*
X142679968Y-53710814D01*
X142679968Y-53710814D02*
X142608539Y-53782243D01*
X142608539Y-53782243D02*
X142465682Y-53853671D01*
X142465682Y-53853671D02*
X142179968Y-53853671D01*
X142179968Y-53853671D02*
X142037110Y-53782243D01*
X143608539Y-53853671D02*
X143465682Y-53782243D01*
X143465682Y-53782243D02*
X143394253Y-53710814D01*
X143394253Y-53710814D02*
X143322825Y-53567957D01*
X143322825Y-53567957D02*
X143322825Y-53139385D01*
X143322825Y-53139385D02*
X143394253Y-52996528D01*
X143394253Y-52996528D02*
X143465682Y-52925100D01*
X143465682Y-52925100D02*
X143608539Y-52853671D01*
X143608539Y-52853671D02*
X143822825Y-52853671D01*
X143822825Y-52853671D02*
X143965682Y-52925100D01*
X143965682Y-52925100D02*
X144037111Y-52996528D01*
X144037111Y-52996528D02*
X144108539Y-53139385D01*
X144108539Y-53139385D02*
X144108539Y-53567957D01*
X144108539Y-53567957D02*
X144037111Y-53710814D01*
X144037111Y-53710814D02*
X143965682Y-53782243D01*
X143965682Y-53782243D02*
X143822825Y-53853671D01*
X143822825Y-53853671D02*
X143608539Y-53853671D01*
X145394254Y-53853671D02*
X145394254Y-53067957D01*
X145394254Y-53067957D02*
X145322825Y-52925100D01*
X145322825Y-52925100D02*
X145179968Y-52853671D01*
X145179968Y-52853671D02*
X144894254Y-52853671D01*
X144894254Y-52853671D02*
X144751396Y-52925100D01*
X145394254Y-53782243D02*
X145251396Y-53853671D01*
X145251396Y-53853671D02*
X144894254Y-53853671D01*
X144894254Y-53853671D02*
X144751396Y-53782243D01*
X144751396Y-53782243D02*
X144679968Y-53639385D01*
X144679968Y-53639385D02*
X144679968Y-53496528D01*
X144679968Y-53496528D02*
X144751396Y-53353671D01*
X144751396Y-53353671D02*
X144894254Y-53282243D01*
X144894254Y-53282243D02*
X145251396Y-53282243D01*
X145251396Y-53282243D02*
X145394254Y-53210814D01*
X146108539Y-53853671D02*
X146108539Y-52853671D01*
X146108539Y-53139385D02*
X146179968Y-52996528D01*
X146179968Y-52996528D02*
X146251397Y-52925100D01*
X146251397Y-52925100D02*
X146394254Y-52853671D01*
X146394254Y-52853671D02*
X146537111Y-52853671D01*
X147679968Y-53853671D02*
X147679968Y-52353671D01*
X147679968Y-53782243D02*
X147537110Y-53853671D01*
X147537110Y-53853671D02*
X147251396Y-53853671D01*
X147251396Y-53853671D02*
X147108539Y-53782243D01*
X147108539Y-53782243D02*
X147037110Y-53710814D01*
X147037110Y-53710814D02*
X146965682Y-53567957D01*
X146965682Y-53567957D02*
X146965682Y-53139385D01*
X146965682Y-53139385D02*
X147037110Y-52996528D01*
X147037110Y-52996528D02*
X147108539Y-52925100D01*
X147108539Y-52925100D02*
X147251396Y-52853671D01*
X147251396Y-52853671D02*
X147537110Y-52853671D01*
X147537110Y-52853671D02*
X147679968Y-52925100D01*
X150108539Y-53782243D02*
X149965682Y-53853671D01*
X149965682Y-53853671D02*
X149679968Y-53853671D01*
X149679968Y-53853671D02*
X149537110Y-53782243D01*
X149537110Y-53782243D02*
X149465682Y-53639385D01*
X149465682Y-53639385D02*
X149465682Y-53067957D01*
X149465682Y-53067957D02*
X149537110Y-52925100D01*
X149537110Y-52925100D02*
X149679968Y-52853671D01*
X149679968Y-52853671D02*
X149965682Y-52853671D01*
X149965682Y-52853671D02*
X150108539Y-52925100D01*
X150108539Y-52925100D02*
X150179968Y-53067957D01*
X150179968Y-53067957D02*
X150179968Y-53210814D01*
X150179968Y-53210814D02*
X149465682Y-53353671D01*
X151465682Y-53853671D02*
X151465682Y-52353671D01*
X151465682Y-53782243D02*
X151322824Y-53853671D01*
X151322824Y-53853671D02*
X151037110Y-53853671D01*
X151037110Y-53853671D02*
X150894253Y-53782243D01*
X150894253Y-53782243D02*
X150822824Y-53710814D01*
X150822824Y-53710814D02*
X150751396Y-53567957D01*
X150751396Y-53567957D02*
X150751396Y-53139385D01*
X150751396Y-53139385D02*
X150822824Y-52996528D01*
X150822824Y-52996528D02*
X150894253Y-52925100D01*
X150894253Y-52925100D02*
X151037110Y-52853671D01*
X151037110Y-52853671D02*
X151322824Y-52853671D01*
X151322824Y-52853671D02*
X151465682Y-52925100D01*
X152822825Y-52853671D02*
X152822825Y-54067957D01*
X152822825Y-54067957D02*
X152751396Y-54210814D01*
X152751396Y-54210814D02*
X152679967Y-54282243D01*
X152679967Y-54282243D02*
X152537110Y-54353671D01*
X152537110Y-54353671D02*
X152322825Y-54353671D01*
X152322825Y-54353671D02*
X152179967Y-54282243D01*
X152822825Y-53782243D02*
X152679967Y-53853671D01*
X152679967Y-53853671D02*
X152394253Y-53853671D01*
X152394253Y-53853671D02*
X152251396Y-53782243D01*
X152251396Y-53782243D02*
X152179967Y-53710814D01*
X152179967Y-53710814D02*
X152108539Y-53567957D01*
X152108539Y-53567957D02*
X152108539Y-53139385D01*
X152108539Y-53139385D02*
X152179967Y-52996528D01*
X152179967Y-52996528D02*
X152251396Y-52925100D01*
X152251396Y-52925100D02*
X152394253Y-52853671D01*
X152394253Y-52853671D02*
X152679967Y-52853671D01*
X152679967Y-52853671D02*
X152822825Y-52925100D01*
X154108539Y-53782243D02*
X153965682Y-53853671D01*
X153965682Y-53853671D02*
X153679968Y-53853671D01*
X153679968Y-53853671D02*
X153537110Y-53782243D01*
X153537110Y-53782243D02*
X153465682Y-53639385D01*
X153465682Y-53639385D02*
X153465682Y-53067957D01*
X153465682Y-53067957D02*
X153537110Y-52925100D01*
X153537110Y-52925100D02*
X153679968Y-52853671D01*
X153679968Y-52853671D02*
X153965682Y-52853671D01*
X153965682Y-52853671D02*
X154108539Y-52925100D01*
X154108539Y-52925100D02*
X154179968Y-53067957D01*
X154179968Y-53067957D02*
X154179968Y-53210814D01*
X154179968Y-53210814D02*
X153465682Y-53353671D01*
X154751396Y-53782243D02*
X154894253Y-53853671D01*
X154894253Y-53853671D02*
X155179967Y-53853671D01*
X155179967Y-53853671D02*
X155322824Y-53782243D01*
X155322824Y-53782243D02*
X155394253Y-53639385D01*
X155394253Y-53639385D02*
X155394253Y-53567957D01*
X155394253Y-53567957D02*
X155322824Y-53425100D01*
X155322824Y-53425100D02*
X155179967Y-53353671D01*
X155179967Y-53353671D02*
X154965682Y-53353671D01*
X154965682Y-53353671D02*
X154822824Y-53282243D01*
X154822824Y-53282243D02*
X154751396Y-53139385D01*
X154751396Y-53139385D02*
X154751396Y-53067957D01*
X154751396Y-53067957D02*
X154822824Y-52925100D01*
X154822824Y-52925100D02*
X154965682Y-52853671D01*
X154965682Y-52853671D02*
X155179967Y-52853671D01*
X155179967Y-52853671D02*
X155322824Y-52925100D01*
X157822825Y-53853671D02*
X157822825Y-52353671D01*
X157822825Y-53782243D02*
X157679967Y-53853671D01*
X157679967Y-53853671D02*
X157394253Y-53853671D01*
X157394253Y-53853671D02*
X157251396Y-53782243D01*
X157251396Y-53782243D02*
X157179967Y-53710814D01*
X157179967Y-53710814D02*
X157108539Y-53567957D01*
X157108539Y-53567957D02*
X157108539Y-53139385D01*
X157108539Y-53139385D02*
X157179967Y-52996528D01*
X157179967Y-52996528D02*
X157251396Y-52925100D01*
X157251396Y-52925100D02*
X157394253Y-52853671D01*
X157394253Y-52853671D02*
X157679967Y-52853671D01*
X157679967Y-52853671D02*
X157822825Y-52925100D01*
X159108539Y-53782243D02*
X158965682Y-53853671D01*
X158965682Y-53853671D02*
X158679968Y-53853671D01*
X158679968Y-53853671D02*
X158537110Y-53782243D01*
X158537110Y-53782243D02*
X158465682Y-53639385D01*
X158465682Y-53639385D02*
X158465682Y-53067957D01*
X158465682Y-53067957D02*
X158537110Y-52925100D01*
X158537110Y-52925100D02*
X158679968Y-52853671D01*
X158679968Y-52853671D02*
X158965682Y-52853671D01*
X158965682Y-52853671D02*
X159108539Y-52925100D01*
X159108539Y-52925100D02*
X159179968Y-53067957D01*
X159179968Y-53067957D02*
X159179968Y-53210814D01*
X159179968Y-53210814D02*
X158465682Y-53353671D01*
X159822824Y-52853671D02*
X159822824Y-54353671D01*
X159822824Y-52925100D02*
X159965682Y-52853671D01*
X159965682Y-52853671D02*
X160251396Y-52853671D01*
X160251396Y-52853671D02*
X160394253Y-52925100D01*
X160394253Y-52925100D02*
X160465682Y-52996528D01*
X160465682Y-52996528D02*
X160537110Y-53139385D01*
X160537110Y-53139385D02*
X160537110Y-53567957D01*
X160537110Y-53567957D02*
X160465682Y-53710814D01*
X160465682Y-53710814D02*
X160394253Y-53782243D01*
X160394253Y-53782243D02*
X160251396Y-53853671D01*
X160251396Y-53853671D02*
X159965682Y-53853671D01*
X159965682Y-53853671D02*
X159822824Y-53782243D01*
X161751396Y-53782243D02*
X161608539Y-53853671D01*
X161608539Y-53853671D02*
X161322825Y-53853671D01*
X161322825Y-53853671D02*
X161179967Y-53782243D01*
X161179967Y-53782243D02*
X161108539Y-53639385D01*
X161108539Y-53639385D02*
X161108539Y-53067957D01*
X161108539Y-53067957D02*
X161179967Y-52925100D01*
X161179967Y-52925100D02*
X161322825Y-52853671D01*
X161322825Y-52853671D02*
X161608539Y-52853671D01*
X161608539Y-52853671D02*
X161751396Y-52925100D01*
X161751396Y-52925100D02*
X161822825Y-53067957D01*
X161822825Y-53067957D02*
X161822825Y-53210814D01*
X161822825Y-53210814D02*
X161108539Y-53353671D01*
X162465681Y-52853671D02*
X162465681Y-53853671D01*
X162465681Y-52996528D02*
X162537110Y-52925100D01*
X162537110Y-52925100D02*
X162679967Y-52853671D01*
X162679967Y-52853671D02*
X162894253Y-52853671D01*
X162894253Y-52853671D02*
X163037110Y-52925100D01*
X163037110Y-52925100D02*
X163108539Y-53067957D01*
X163108539Y-53067957D02*
X163108539Y-53853671D01*
X164465682Y-53853671D02*
X164465682Y-52353671D01*
X164465682Y-53782243D02*
X164322824Y-53853671D01*
X164322824Y-53853671D02*
X164037110Y-53853671D01*
X164037110Y-53853671D02*
X163894253Y-53782243D01*
X163894253Y-53782243D02*
X163822824Y-53710814D01*
X163822824Y-53710814D02*
X163751396Y-53567957D01*
X163751396Y-53567957D02*
X163751396Y-53139385D01*
X163751396Y-53139385D02*
X163822824Y-52996528D01*
X163822824Y-52996528D02*
X163894253Y-52925100D01*
X163894253Y-52925100D02*
X164037110Y-52853671D01*
X164037110Y-52853671D02*
X164322824Y-52853671D01*
X164322824Y-52853671D02*
X164465682Y-52925100D01*
X165179967Y-53853671D02*
X165179967Y-52853671D01*
X165179967Y-52353671D02*
X165108539Y-52425100D01*
X165108539Y-52425100D02*
X165179967Y-52496528D01*
X165179967Y-52496528D02*
X165251396Y-52425100D01*
X165251396Y-52425100D02*
X165179967Y-52353671D01*
X165179967Y-52353671D02*
X165179967Y-52496528D01*
X165894253Y-52853671D02*
X165894253Y-53853671D01*
X165894253Y-52996528D02*
X165965682Y-52925100D01*
X165965682Y-52925100D02*
X166108539Y-52853671D01*
X166108539Y-52853671D02*
X166322825Y-52853671D01*
X166322825Y-52853671D02*
X166465682Y-52925100D01*
X166465682Y-52925100D02*
X166537111Y-53067957D01*
X166537111Y-53067957D02*
X166537111Y-53853671D01*
X167894254Y-52853671D02*
X167894254Y-54067957D01*
X167894254Y-54067957D02*
X167822825Y-54210814D01*
X167822825Y-54210814D02*
X167751396Y-54282243D01*
X167751396Y-54282243D02*
X167608539Y-54353671D01*
X167608539Y-54353671D02*
X167394254Y-54353671D01*
X167394254Y-54353671D02*
X167251396Y-54282243D01*
X167894254Y-53782243D02*
X167751396Y-53853671D01*
X167751396Y-53853671D02*
X167465682Y-53853671D01*
X167465682Y-53853671D02*
X167322825Y-53782243D01*
X167322825Y-53782243D02*
X167251396Y-53710814D01*
X167251396Y-53710814D02*
X167179968Y-53567957D01*
X167179968Y-53567957D02*
X167179968Y-53139385D01*
X167179968Y-53139385D02*
X167251396Y-52996528D01*
X167251396Y-52996528D02*
X167322825Y-52925100D01*
X167322825Y-52925100D02*
X167465682Y-52853671D01*
X167465682Y-52853671D02*
X167751396Y-52853671D01*
X167751396Y-52853671D02*
X167894254Y-52925100D01*
X118965684Y-55268587D02*
X118965684Y-56268587D01*
X118322826Y-55268587D02*
X118322826Y-56054301D01*
X118322826Y-56054301D02*
X118394255Y-56197159D01*
X118394255Y-56197159D02*
X118537112Y-56268587D01*
X118537112Y-56268587D02*
X118751398Y-56268587D01*
X118751398Y-56268587D02*
X118894255Y-56197159D01*
X118894255Y-56197159D02*
X118965684Y-56125730D01*
X119679969Y-55268587D02*
X119679969Y-56768587D01*
X119679969Y-55340016D02*
X119822827Y-55268587D01*
X119822827Y-55268587D02*
X120108541Y-55268587D01*
X120108541Y-55268587D02*
X120251398Y-55340016D01*
X120251398Y-55340016D02*
X120322827Y-55411444D01*
X120322827Y-55411444D02*
X120394255Y-55554301D01*
X120394255Y-55554301D02*
X120394255Y-55982873D01*
X120394255Y-55982873D02*
X120322827Y-56125730D01*
X120322827Y-56125730D02*
X120251398Y-56197159D01*
X120251398Y-56197159D02*
X120108541Y-56268587D01*
X120108541Y-56268587D02*
X119822827Y-56268587D01*
X119822827Y-56268587D02*
X119679969Y-56197159D01*
X121251398Y-56268587D02*
X121108541Y-56197159D01*
X121108541Y-56197159D02*
X121037112Y-56125730D01*
X121037112Y-56125730D02*
X120965684Y-55982873D01*
X120965684Y-55982873D02*
X120965684Y-55554301D01*
X120965684Y-55554301D02*
X121037112Y-55411444D01*
X121037112Y-55411444D02*
X121108541Y-55340016D01*
X121108541Y-55340016D02*
X121251398Y-55268587D01*
X121251398Y-55268587D02*
X121465684Y-55268587D01*
X121465684Y-55268587D02*
X121608541Y-55340016D01*
X121608541Y-55340016D02*
X121679970Y-55411444D01*
X121679970Y-55411444D02*
X121751398Y-55554301D01*
X121751398Y-55554301D02*
X121751398Y-55982873D01*
X121751398Y-55982873D02*
X121679970Y-56125730D01*
X121679970Y-56125730D02*
X121608541Y-56197159D01*
X121608541Y-56197159D02*
X121465684Y-56268587D01*
X121465684Y-56268587D02*
X121251398Y-56268587D01*
X122394255Y-55268587D02*
X122394255Y-56268587D01*
X122394255Y-55411444D02*
X122465684Y-55340016D01*
X122465684Y-55340016D02*
X122608541Y-55268587D01*
X122608541Y-55268587D02*
X122822827Y-55268587D01*
X122822827Y-55268587D02*
X122965684Y-55340016D01*
X122965684Y-55340016D02*
X123037113Y-55482873D01*
X123037113Y-55482873D02*
X123037113Y-56268587D01*
X124679970Y-55268587D02*
X125251398Y-55268587D01*
X124894255Y-54768587D02*
X124894255Y-56054301D01*
X124894255Y-56054301D02*
X124965684Y-56197159D01*
X124965684Y-56197159D02*
X125108541Y-56268587D01*
X125108541Y-56268587D02*
X125251398Y-56268587D01*
X125751398Y-56268587D02*
X125751398Y-54768587D01*
X126394256Y-56268587D02*
X126394256Y-55482873D01*
X126394256Y-55482873D02*
X126322827Y-55340016D01*
X126322827Y-55340016D02*
X126179970Y-55268587D01*
X126179970Y-55268587D02*
X125965684Y-55268587D01*
X125965684Y-55268587D02*
X125822827Y-55340016D01*
X125822827Y-55340016D02*
X125751398Y-55411444D01*
X127679970Y-56197159D02*
X127537113Y-56268587D01*
X127537113Y-56268587D02*
X127251399Y-56268587D01*
X127251399Y-56268587D02*
X127108541Y-56197159D01*
X127108541Y-56197159D02*
X127037113Y-56054301D01*
X127037113Y-56054301D02*
X127037113Y-55482873D01*
X127037113Y-55482873D02*
X127108541Y-55340016D01*
X127108541Y-55340016D02*
X127251399Y-55268587D01*
X127251399Y-55268587D02*
X127537113Y-55268587D01*
X127537113Y-55268587D02*
X127679970Y-55340016D01*
X127679970Y-55340016D02*
X127751399Y-55482873D01*
X127751399Y-55482873D02*
X127751399Y-55625730D01*
X127751399Y-55625730D02*
X127037113Y-55768587D01*
X129322827Y-55268587D02*
X129894255Y-55268587D01*
X129537112Y-54768587D02*
X129537112Y-56054301D01*
X129537112Y-56054301D02*
X129608541Y-56197159D01*
X129608541Y-56197159D02*
X129751398Y-56268587D01*
X129751398Y-56268587D02*
X129894255Y-56268587D01*
X130251398Y-55268587D02*
X130608541Y-56268587D01*
X130965684Y-55268587D02*
X130608541Y-56268587D01*
X130608541Y-56268587D02*
X130465684Y-56625730D01*
X130465684Y-56625730D02*
X130394255Y-56697159D01*
X130394255Y-56697159D02*
X130251398Y-56768587D01*
X131537112Y-55268587D02*
X131537112Y-56768587D01*
X131537112Y-55340016D02*
X131679970Y-55268587D01*
X131679970Y-55268587D02*
X131965684Y-55268587D01*
X131965684Y-55268587D02*
X132108541Y-55340016D01*
X132108541Y-55340016D02*
X132179970Y-55411444D01*
X132179970Y-55411444D02*
X132251398Y-55554301D01*
X132251398Y-55554301D02*
X132251398Y-55982873D01*
X132251398Y-55982873D02*
X132179970Y-56125730D01*
X132179970Y-56125730D02*
X132108541Y-56197159D01*
X132108541Y-56197159D02*
X131965684Y-56268587D01*
X131965684Y-56268587D02*
X131679970Y-56268587D01*
X131679970Y-56268587D02*
X131537112Y-56197159D01*
X133465684Y-56197159D02*
X133322827Y-56268587D01*
X133322827Y-56268587D02*
X133037113Y-56268587D01*
X133037113Y-56268587D02*
X132894255Y-56197159D01*
X132894255Y-56197159D02*
X132822827Y-56054301D01*
X132822827Y-56054301D02*
X132822827Y-55482873D01*
X132822827Y-55482873D02*
X132894255Y-55340016D01*
X132894255Y-55340016D02*
X133037113Y-55268587D01*
X133037113Y-55268587D02*
X133322827Y-55268587D01*
X133322827Y-55268587D02*
X133465684Y-55340016D01*
X133465684Y-55340016D02*
X133537113Y-55482873D01*
X133537113Y-55482873D02*
X133537113Y-55625730D01*
X133537113Y-55625730D02*
X132822827Y-55768587D01*
X135537112Y-56268587D02*
X135394255Y-56197159D01*
X135394255Y-56197159D02*
X135322826Y-56125730D01*
X135322826Y-56125730D02*
X135251398Y-55982873D01*
X135251398Y-55982873D02*
X135251398Y-55554301D01*
X135251398Y-55554301D02*
X135322826Y-55411444D01*
X135322826Y-55411444D02*
X135394255Y-55340016D01*
X135394255Y-55340016D02*
X135537112Y-55268587D01*
X135537112Y-55268587D02*
X135751398Y-55268587D01*
X135751398Y-55268587D02*
X135894255Y-55340016D01*
X135894255Y-55340016D02*
X135965684Y-55411444D01*
X135965684Y-55411444D02*
X136037112Y-55554301D01*
X136037112Y-55554301D02*
X136037112Y-55982873D01*
X136037112Y-55982873D02*
X135965684Y-56125730D01*
X135965684Y-56125730D02*
X135894255Y-56197159D01*
X135894255Y-56197159D02*
X135751398Y-56268587D01*
X135751398Y-56268587D02*
X135537112Y-56268587D01*
X136465684Y-55268587D02*
X137037112Y-55268587D01*
X136679969Y-56268587D02*
X136679969Y-54982873D01*
X136679969Y-54982873D02*
X136751398Y-54840016D01*
X136751398Y-54840016D02*
X136894255Y-54768587D01*
X136894255Y-54768587D02*
X137037112Y-54768587D01*
X138608541Y-56197159D02*
X138751398Y-56268587D01*
X138751398Y-56268587D02*
X139037112Y-56268587D01*
X139037112Y-56268587D02*
X139179969Y-56197159D01*
X139179969Y-56197159D02*
X139251398Y-56054301D01*
X139251398Y-56054301D02*
X139251398Y-55982873D01*
X139251398Y-55982873D02*
X139179969Y-55840016D01*
X139179969Y-55840016D02*
X139037112Y-55768587D01*
X139037112Y-55768587D02*
X138822827Y-55768587D01*
X138822827Y-55768587D02*
X138679969Y-55697159D01*
X138679969Y-55697159D02*
X138608541Y-55554301D01*
X138608541Y-55554301D02*
X138608541Y-55482873D01*
X138608541Y-55482873D02*
X138679969Y-55340016D01*
X138679969Y-55340016D02*
X138822827Y-55268587D01*
X138822827Y-55268587D02*
X139037112Y-55268587D01*
X139037112Y-55268587D02*
X139179969Y-55340016D01*
X140108541Y-56268587D02*
X139965684Y-56197159D01*
X139965684Y-56197159D02*
X139894255Y-56125730D01*
X139894255Y-56125730D02*
X139822827Y-55982873D01*
X139822827Y-55982873D02*
X139822827Y-55554301D01*
X139822827Y-55554301D02*
X139894255Y-55411444D01*
X139894255Y-55411444D02*
X139965684Y-55340016D01*
X139965684Y-55340016D02*
X140108541Y-55268587D01*
X140108541Y-55268587D02*
X140322827Y-55268587D01*
X140322827Y-55268587D02*
X140465684Y-55340016D01*
X140465684Y-55340016D02*
X140537113Y-55411444D01*
X140537113Y-55411444D02*
X140608541Y-55554301D01*
X140608541Y-55554301D02*
X140608541Y-55982873D01*
X140608541Y-55982873D02*
X140537113Y-56125730D01*
X140537113Y-56125730D02*
X140465684Y-56197159D01*
X140465684Y-56197159D02*
X140322827Y-56268587D01*
X140322827Y-56268587D02*
X140108541Y-56268587D01*
X141894256Y-56197159D02*
X141751398Y-56268587D01*
X141751398Y-56268587D02*
X141465684Y-56268587D01*
X141465684Y-56268587D02*
X141322827Y-56197159D01*
X141322827Y-56197159D02*
X141251398Y-56125730D01*
X141251398Y-56125730D02*
X141179970Y-55982873D01*
X141179970Y-55982873D02*
X141179970Y-55554301D01*
X141179970Y-55554301D02*
X141251398Y-55411444D01*
X141251398Y-55411444D02*
X141322827Y-55340016D01*
X141322827Y-55340016D02*
X141465684Y-55268587D01*
X141465684Y-55268587D02*
X141751398Y-55268587D01*
X141751398Y-55268587D02*
X141894256Y-55340016D01*
X142537112Y-56268587D02*
X142537112Y-54768587D01*
X142679970Y-55697159D02*
X143108541Y-56268587D01*
X143108541Y-55268587D02*
X142537112Y-55840016D01*
X144322827Y-56197159D02*
X144179970Y-56268587D01*
X144179970Y-56268587D02*
X143894256Y-56268587D01*
X143894256Y-56268587D02*
X143751398Y-56197159D01*
X143751398Y-56197159D02*
X143679970Y-56054301D01*
X143679970Y-56054301D02*
X143679970Y-55482873D01*
X143679970Y-55482873D02*
X143751398Y-55340016D01*
X143751398Y-55340016D02*
X143894256Y-55268587D01*
X143894256Y-55268587D02*
X144179970Y-55268587D01*
X144179970Y-55268587D02*
X144322827Y-55340016D01*
X144322827Y-55340016D02*
X144394256Y-55482873D01*
X144394256Y-55482873D02*
X144394256Y-55625730D01*
X144394256Y-55625730D02*
X143679970Y-55768587D01*
X144822827Y-55268587D02*
X145394255Y-55268587D01*
X145037112Y-54768587D02*
X145037112Y-56054301D01*
X145037112Y-56054301D02*
X145108541Y-56197159D01*
X145108541Y-56197159D02*
X145251398Y-56268587D01*
X145251398Y-56268587D02*
X145394255Y-56268587D01*
X146822827Y-55268587D02*
X147394255Y-55268587D01*
X147037112Y-54768587D02*
X147037112Y-56054301D01*
X147037112Y-56054301D02*
X147108541Y-56197159D01*
X147108541Y-56197159D02*
X147251398Y-56268587D01*
X147251398Y-56268587D02*
X147394255Y-56268587D01*
X147894255Y-56268587D02*
X147894255Y-54768587D01*
X148537113Y-56268587D02*
X148537113Y-55482873D01*
X148537113Y-55482873D02*
X148465684Y-55340016D01*
X148465684Y-55340016D02*
X148322827Y-55268587D01*
X148322827Y-55268587D02*
X148108541Y-55268587D01*
X148108541Y-55268587D02*
X147965684Y-55340016D01*
X147965684Y-55340016D02*
X147894255Y-55411444D01*
X149894256Y-56268587D02*
X149894256Y-55482873D01*
X149894256Y-55482873D02*
X149822827Y-55340016D01*
X149822827Y-55340016D02*
X149679970Y-55268587D01*
X149679970Y-55268587D02*
X149394256Y-55268587D01*
X149394256Y-55268587D02*
X149251398Y-55340016D01*
X149894256Y-56197159D02*
X149751398Y-56268587D01*
X149751398Y-56268587D02*
X149394256Y-56268587D01*
X149394256Y-56268587D02*
X149251398Y-56197159D01*
X149251398Y-56197159D02*
X149179970Y-56054301D01*
X149179970Y-56054301D02*
X149179970Y-55911444D01*
X149179970Y-55911444D02*
X149251398Y-55768587D01*
X149251398Y-55768587D02*
X149394256Y-55697159D01*
X149394256Y-55697159D02*
X149751398Y-55697159D01*
X149751398Y-55697159D02*
X149894256Y-55625730D01*
X150394256Y-55268587D02*
X150965684Y-55268587D01*
X150608541Y-54768587D02*
X150608541Y-56054301D01*
X150608541Y-56054301D02*
X150679970Y-56197159D01*
X150679970Y-56197159D02*
X150822827Y-56268587D01*
X150822827Y-56268587D02*
X150965684Y-56268587D01*
X152608541Y-56268587D02*
X152608541Y-55268587D01*
X152608541Y-54768587D02*
X152537113Y-54840016D01*
X152537113Y-54840016D02*
X152608541Y-54911444D01*
X152608541Y-54911444D02*
X152679970Y-54840016D01*
X152679970Y-54840016D02*
X152608541Y-54768587D01*
X152608541Y-54768587D02*
X152608541Y-54911444D01*
X153251399Y-56197159D02*
X153394256Y-56268587D01*
X153394256Y-56268587D02*
X153679970Y-56268587D01*
X153679970Y-56268587D02*
X153822827Y-56197159D01*
X153822827Y-56197159D02*
X153894256Y-56054301D01*
X153894256Y-56054301D02*
X153894256Y-55982873D01*
X153894256Y-55982873D02*
X153822827Y-55840016D01*
X153822827Y-55840016D02*
X153679970Y-55768587D01*
X153679970Y-55768587D02*
X153465685Y-55768587D01*
X153465685Y-55768587D02*
X153322827Y-55697159D01*
X153322827Y-55697159D02*
X153251399Y-55554301D01*
X153251399Y-55554301D02*
X153251399Y-55482873D01*
X153251399Y-55482873D02*
X153322827Y-55340016D01*
X153322827Y-55340016D02*
X153465685Y-55268587D01*
X153465685Y-55268587D02*
X153679970Y-55268587D01*
X153679970Y-55268587D02*
X153822827Y-55340016D01*
X156322828Y-55268587D02*
X156322828Y-56268587D01*
X155679970Y-55268587D02*
X155679970Y-56054301D01*
X155679970Y-56054301D02*
X155751399Y-56197159D01*
X155751399Y-56197159D02*
X155894256Y-56268587D01*
X155894256Y-56268587D02*
X156108542Y-56268587D01*
X156108542Y-56268587D02*
X156251399Y-56197159D01*
X156251399Y-56197159D02*
X156322828Y-56125730D01*
X156965685Y-56197159D02*
X157108542Y-56268587D01*
X157108542Y-56268587D02*
X157394256Y-56268587D01*
X157394256Y-56268587D02*
X157537113Y-56197159D01*
X157537113Y-56197159D02*
X157608542Y-56054301D01*
X157608542Y-56054301D02*
X157608542Y-55982873D01*
X157608542Y-55982873D02*
X157537113Y-55840016D01*
X157537113Y-55840016D02*
X157394256Y-55768587D01*
X157394256Y-55768587D02*
X157179971Y-55768587D01*
X157179971Y-55768587D02*
X157037113Y-55697159D01*
X157037113Y-55697159D02*
X156965685Y-55554301D01*
X156965685Y-55554301D02*
X156965685Y-55482873D01*
X156965685Y-55482873D02*
X157037113Y-55340016D01*
X157037113Y-55340016D02*
X157179971Y-55268587D01*
X157179971Y-55268587D02*
X157394256Y-55268587D01*
X157394256Y-55268587D02*
X157537113Y-55340016D01*
X158822828Y-56197159D02*
X158679971Y-56268587D01*
X158679971Y-56268587D02*
X158394257Y-56268587D01*
X158394257Y-56268587D02*
X158251399Y-56197159D01*
X158251399Y-56197159D02*
X158179971Y-56054301D01*
X158179971Y-56054301D02*
X158179971Y-55482873D01*
X158179971Y-55482873D02*
X158251399Y-55340016D01*
X158251399Y-55340016D02*
X158394257Y-55268587D01*
X158394257Y-55268587D02*
X158679971Y-55268587D01*
X158679971Y-55268587D02*
X158822828Y-55340016D01*
X158822828Y-55340016D02*
X158894257Y-55482873D01*
X158894257Y-55482873D02*
X158894257Y-55625730D01*
X158894257Y-55625730D02*
X158179971Y-55768587D01*
X160179971Y-56268587D02*
X160179971Y-54768587D01*
X160179971Y-56197159D02*
X160037113Y-56268587D01*
X160037113Y-56268587D02*
X159751399Y-56268587D01*
X159751399Y-56268587D02*
X159608542Y-56197159D01*
X159608542Y-56197159D02*
X159537113Y-56125730D01*
X159537113Y-56125730D02*
X159465685Y-55982873D01*
X159465685Y-55982873D02*
X159465685Y-55554301D01*
X159465685Y-55554301D02*
X159537113Y-55411444D01*
X159537113Y-55411444D02*
X159608542Y-55340016D01*
X159608542Y-55340016D02*
X159751399Y-55268587D01*
X159751399Y-55268587D02*
X160037113Y-55268587D01*
X160037113Y-55268587D02*
X160179971Y-55340016D01*
X160894256Y-56125730D02*
X160965685Y-56197159D01*
X160965685Y-56197159D02*
X160894256Y-56268587D01*
X160894256Y-56268587D02*
X160822828Y-56197159D01*
X160822828Y-56197159D02*
X160894256Y-56125730D01*
X160894256Y-56125730D02*
X160894256Y-56268587D01*
M02*
