G04 #@! TF.GenerationSoftware,KiCad,Pcbnew,8.0.0*
G04 #@! TF.CreationDate,2024-03-06T16:50:22+00:00*
G04 #@! TF.ProjectId,cyclops,6379636c-6f70-4732-9e6b-696361645f70,rev?*
G04 #@! TF.SameCoordinates,Original*
G04 #@! TF.FileFunction,OtherDrawing,Comment*
%FSLAX46Y46*%
G04 Gerber Fmt 4.6, Leading zero omitted, Abs format (unit mm)*
G04 Created by KiCad (PCBNEW 8.0.0) date 2024-03-06 16:50:22*
%MOMM*%
%LPD*%
G01*
G04 APERTURE LIST*
%ADD10C,0.150000*%
G04 APERTURE END LIST*
D10*
X117403128Y-103910714D02*
X117403128Y-102982142D01*
X117403128Y-102982142D02*
X117974557Y-103482142D01*
X117974557Y-103482142D02*
X117974557Y-103267857D01*
X117974557Y-103267857D02*
X118045985Y-103125000D01*
X118045985Y-103125000D02*
X118117414Y-103053571D01*
X118117414Y-103053571D02*
X118260271Y-102982142D01*
X118260271Y-102982142D02*
X118617414Y-102982142D01*
X118617414Y-102982142D02*
X118760271Y-103053571D01*
X118760271Y-103053571D02*
X118831700Y-103125000D01*
X118831700Y-103125000D02*
X118903128Y-103267857D01*
X118903128Y-103267857D02*
X118903128Y-103696428D01*
X118903128Y-103696428D02*
X118831700Y-103839285D01*
X118831700Y-103839285D02*
X118760271Y-103910714D01*
X118760271Y-102339286D02*
X118831700Y-102267857D01*
X118831700Y-102267857D02*
X118903128Y-102339286D01*
X118903128Y-102339286D02*
X118831700Y-102410714D01*
X118831700Y-102410714D02*
X118760271Y-102339286D01*
X118760271Y-102339286D02*
X118903128Y-102339286D01*
X117403128Y-100910714D02*
X117403128Y-101625000D01*
X117403128Y-101625000D02*
X118117414Y-101696428D01*
X118117414Y-101696428D02*
X118045985Y-101625000D01*
X118045985Y-101625000D02*
X117974557Y-101482143D01*
X117974557Y-101482143D02*
X117974557Y-101125000D01*
X117974557Y-101125000D02*
X118045985Y-100982143D01*
X118045985Y-100982143D02*
X118117414Y-100910714D01*
X118117414Y-100910714D02*
X118260271Y-100839285D01*
X118260271Y-100839285D02*
X118617414Y-100839285D01*
X118617414Y-100839285D02*
X118760271Y-100910714D01*
X118760271Y-100910714D02*
X118831700Y-100982143D01*
X118831700Y-100982143D02*
X118903128Y-101125000D01*
X118903128Y-101125000D02*
X118903128Y-101482143D01*
X118903128Y-101482143D02*
X118831700Y-101625000D01*
X118831700Y-101625000D02*
X118760271Y-101696428D01*
X117403128Y-99910714D02*
X117403128Y-99767857D01*
X117403128Y-99767857D02*
X117474557Y-99625000D01*
X117474557Y-99625000D02*
X117545985Y-99553572D01*
X117545985Y-99553572D02*
X117688842Y-99482143D01*
X117688842Y-99482143D02*
X117974557Y-99410714D01*
X117974557Y-99410714D02*
X118331700Y-99410714D01*
X118331700Y-99410714D02*
X118617414Y-99482143D01*
X118617414Y-99482143D02*
X118760271Y-99553572D01*
X118760271Y-99553572D02*
X118831700Y-99625000D01*
X118831700Y-99625000D02*
X118903128Y-99767857D01*
X118903128Y-99767857D02*
X118903128Y-99910714D01*
X118903128Y-99910714D02*
X118831700Y-100053572D01*
X118831700Y-100053572D02*
X118760271Y-100125000D01*
X118760271Y-100125000D02*
X118617414Y-100196429D01*
X118617414Y-100196429D02*
X118331700Y-100267857D01*
X118331700Y-100267857D02*
X117974557Y-100267857D01*
X117974557Y-100267857D02*
X117688842Y-100196429D01*
X117688842Y-100196429D02*
X117545985Y-100125000D01*
X117545985Y-100125000D02*
X117474557Y-100053572D01*
X117474557Y-100053572D02*
X117403128Y-99910714D01*
X117403128Y-98482143D02*
X117403128Y-98339286D01*
X117403128Y-98339286D02*
X117474557Y-98196429D01*
X117474557Y-98196429D02*
X117545985Y-98125001D01*
X117545985Y-98125001D02*
X117688842Y-98053572D01*
X117688842Y-98053572D02*
X117974557Y-97982143D01*
X117974557Y-97982143D02*
X118331700Y-97982143D01*
X118331700Y-97982143D02*
X118617414Y-98053572D01*
X118617414Y-98053572D02*
X118760271Y-98125001D01*
X118760271Y-98125001D02*
X118831700Y-98196429D01*
X118831700Y-98196429D02*
X118903128Y-98339286D01*
X118903128Y-98339286D02*
X118903128Y-98482143D01*
X118903128Y-98482143D02*
X118831700Y-98625001D01*
X118831700Y-98625001D02*
X118760271Y-98696429D01*
X118760271Y-98696429D02*
X118617414Y-98767858D01*
X118617414Y-98767858D02*
X118331700Y-98839286D01*
X118331700Y-98839286D02*
X117974557Y-98839286D01*
X117974557Y-98839286D02*
X117688842Y-98767858D01*
X117688842Y-98767858D02*
X117545985Y-98696429D01*
X117545985Y-98696429D02*
X117474557Y-98625001D01*
X117474557Y-98625001D02*
X117403128Y-98482143D01*
X117403128Y-97053572D02*
X117403128Y-96910715D01*
X117403128Y-96910715D02*
X117474557Y-96767858D01*
X117474557Y-96767858D02*
X117545985Y-96696430D01*
X117545985Y-96696430D02*
X117688842Y-96625001D01*
X117688842Y-96625001D02*
X117974557Y-96553572D01*
X117974557Y-96553572D02*
X118331700Y-96553572D01*
X118331700Y-96553572D02*
X118617414Y-96625001D01*
X118617414Y-96625001D02*
X118760271Y-96696430D01*
X118760271Y-96696430D02*
X118831700Y-96767858D01*
X118831700Y-96767858D02*
X118903128Y-96910715D01*
X118903128Y-96910715D02*
X118903128Y-97053572D01*
X118903128Y-97053572D02*
X118831700Y-97196430D01*
X118831700Y-97196430D02*
X118760271Y-97267858D01*
X118760271Y-97267858D02*
X118617414Y-97339287D01*
X118617414Y-97339287D02*
X118331700Y-97410715D01*
X118331700Y-97410715D02*
X117974557Y-97410715D01*
X117974557Y-97410715D02*
X117688842Y-97339287D01*
X117688842Y-97339287D02*
X117545985Y-97267858D01*
X117545985Y-97267858D02*
X117474557Y-97196430D01*
X117474557Y-97196430D02*
X117403128Y-97053572D01*
X118903128Y-94767859D02*
X117903128Y-94767859D01*
X118045985Y-94767859D02*
X117974557Y-94696430D01*
X117974557Y-94696430D02*
X117903128Y-94553573D01*
X117903128Y-94553573D02*
X117903128Y-94339287D01*
X117903128Y-94339287D02*
X117974557Y-94196430D01*
X117974557Y-94196430D02*
X118117414Y-94125002D01*
X118117414Y-94125002D02*
X118903128Y-94125002D01*
X118117414Y-94125002D02*
X117974557Y-94053573D01*
X117974557Y-94053573D02*
X117903128Y-93910716D01*
X117903128Y-93910716D02*
X117903128Y-93696430D01*
X117903128Y-93696430D02*
X117974557Y-93553573D01*
X117974557Y-93553573D02*
X118117414Y-93482144D01*
X118117414Y-93482144D02*
X118903128Y-93482144D01*
X118903128Y-92767859D02*
X117903128Y-92767859D01*
X118045985Y-92767859D02*
X117974557Y-92696430D01*
X117974557Y-92696430D02*
X117903128Y-92553573D01*
X117903128Y-92553573D02*
X117903128Y-92339287D01*
X117903128Y-92339287D02*
X117974557Y-92196430D01*
X117974557Y-92196430D02*
X118117414Y-92125002D01*
X118117414Y-92125002D02*
X118903128Y-92125002D01*
X118117414Y-92125002D02*
X117974557Y-92053573D01*
X117974557Y-92053573D02*
X117903128Y-91910716D01*
X117903128Y-91910716D02*
X117903128Y-91696430D01*
X117903128Y-91696430D02*
X117974557Y-91553573D01*
X117974557Y-91553573D02*
X118117414Y-91482144D01*
X118117414Y-91482144D02*
X118903128Y-91482144D01*
X117367000Y-99375001D02*
X120453420Y-99375001D01*
X117367000Y-95875001D02*
X120453420Y-95875001D01*
X119867000Y-99375001D02*
X119867000Y-95875001D01*
X119867000Y-99375001D02*
X119867000Y-95875001D01*
X119867000Y-99375001D02*
X119280579Y-98248497D01*
X119867000Y-99375001D02*
X120453421Y-98248497D01*
X119867000Y-95875001D02*
X120453421Y-97001505D01*
X119867000Y-95875001D02*
X119280579Y-97001505D01*
X181903128Y-91124999D02*
X181903128Y-90196427D01*
X181903128Y-90196427D02*
X182474557Y-90696427D01*
X182474557Y-90696427D02*
X182474557Y-90482142D01*
X182474557Y-90482142D02*
X182545985Y-90339285D01*
X182545985Y-90339285D02*
X182617414Y-90267856D01*
X182617414Y-90267856D02*
X182760271Y-90196427D01*
X182760271Y-90196427D02*
X183117414Y-90196427D01*
X183117414Y-90196427D02*
X183260271Y-90267856D01*
X183260271Y-90267856D02*
X183331700Y-90339285D01*
X183331700Y-90339285D02*
X183403128Y-90482142D01*
X183403128Y-90482142D02*
X183403128Y-90910713D01*
X183403128Y-90910713D02*
X183331700Y-91053570D01*
X183331700Y-91053570D02*
X183260271Y-91124999D01*
X181903128Y-89267856D02*
X181903128Y-89124999D01*
X181903128Y-89124999D02*
X181974557Y-88982142D01*
X181974557Y-88982142D02*
X182045985Y-88910714D01*
X182045985Y-88910714D02*
X182188842Y-88839285D01*
X182188842Y-88839285D02*
X182474557Y-88767856D01*
X182474557Y-88767856D02*
X182831700Y-88767856D01*
X182831700Y-88767856D02*
X183117414Y-88839285D01*
X183117414Y-88839285D02*
X183260271Y-88910714D01*
X183260271Y-88910714D02*
X183331700Y-88982142D01*
X183331700Y-88982142D02*
X183403128Y-89124999D01*
X183403128Y-89124999D02*
X183403128Y-89267856D01*
X183403128Y-89267856D02*
X183331700Y-89410714D01*
X183331700Y-89410714D02*
X183260271Y-89482142D01*
X183260271Y-89482142D02*
X183117414Y-89553571D01*
X183117414Y-89553571D02*
X182831700Y-89624999D01*
X182831700Y-89624999D02*
X182474557Y-89624999D01*
X182474557Y-89624999D02*
X182188842Y-89553571D01*
X182188842Y-89553571D02*
X182045985Y-89482142D01*
X182045985Y-89482142D02*
X181974557Y-89410714D01*
X181974557Y-89410714D02*
X181903128Y-89267856D01*
X183260271Y-88125000D02*
X183331700Y-88053571D01*
X183331700Y-88053571D02*
X183403128Y-88125000D01*
X183403128Y-88125000D02*
X183331700Y-88196428D01*
X183331700Y-88196428D02*
X183260271Y-88125000D01*
X183260271Y-88125000D02*
X183403128Y-88125000D01*
X181903128Y-86696428D02*
X181903128Y-87410714D01*
X181903128Y-87410714D02*
X182617414Y-87482142D01*
X182617414Y-87482142D02*
X182545985Y-87410714D01*
X182545985Y-87410714D02*
X182474557Y-87267857D01*
X182474557Y-87267857D02*
X182474557Y-86910714D01*
X182474557Y-86910714D02*
X182545985Y-86767857D01*
X182545985Y-86767857D02*
X182617414Y-86696428D01*
X182617414Y-86696428D02*
X182760271Y-86624999D01*
X182760271Y-86624999D02*
X183117414Y-86624999D01*
X183117414Y-86624999D02*
X183260271Y-86696428D01*
X183260271Y-86696428D02*
X183331700Y-86767857D01*
X183331700Y-86767857D02*
X183403128Y-86910714D01*
X183403128Y-86910714D02*
X183403128Y-87267857D01*
X183403128Y-87267857D02*
X183331700Y-87410714D01*
X183331700Y-87410714D02*
X183260271Y-87482142D01*
X181903128Y-85696428D02*
X181903128Y-85553571D01*
X181903128Y-85553571D02*
X181974557Y-85410714D01*
X181974557Y-85410714D02*
X182045985Y-85339286D01*
X182045985Y-85339286D02*
X182188842Y-85267857D01*
X182188842Y-85267857D02*
X182474557Y-85196428D01*
X182474557Y-85196428D02*
X182831700Y-85196428D01*
X182831700Y-85196428D02*
X183117414Y-85267857D01*
X183117414Y-85267857D02*
X183260271Y-85339286D01*
X183260271Y-85339286D02*
X183331700Y-85410714D01*
X183331700Y-85410714D02*
X183403128Y-85553571D01*
X183403128Y-85553571D02*
X183403128Y-85696428D01*
X183403128Y-85696428D02*
X183331700Y-85839286D01*
X183331700Y-85839286D02*
X183260271Y-85910714D01*
X183260271Y-85910714D02*
X183117414Y-85982143D01*
X183117414Y-85982143D02*
X182831700Y-86053571D01*
X182831700Y-86053571D02*
X182474557Y-86053571D01*
X182474557Y-86053571D02*
X182188842Y-85982143D01*
X182188842Y-85982143D02*
X182045985Y-85910714D01*
X182045985Y-85910714D02*
X181974557Y-85839286D01*
X181974557Y-85839286D02*
X181903128Y-85696428D01*
X181903128Y-84267857D02*
X181903128Y-84125000D01*
X181903128Y-84125000D02*
X181974557Y-83982143D01*
X181974557Y-83982143D02*
X182045985Y-83910715D01*
X182045985Y-83910715D02*
X182188842Y-83839286D01*
X182188842Y-83839286D02*
X182474557Y-83767857D01*
X182474557Y-83767857D02*
X182831700Y-83767857D01*
X182831700Y-83767857D02*
X183117414Y-83839286D01*
X183117414Y-83839286D02*
X183260271Y-83910715D01*
X183260271Y-83910715D02*
X183331700Y-83982143D01*
X183331700Y-83982143D02*
X183403128Y-84125000D01*
X183403128Y-84125000D02*
X183403128Y-84267857D01*
X183403128Y-84267857D02*
X183331700Y-84410715D01*
X183331700Y-84410715D02*
X183260271Y-84482143D01*
X183260271Y-84482143D02*
X183117414Y-84553572D01*
X183117414Y-84553572D02*
X182831700Y-84625000D01*
X182831700Y-84625000D02*
X182474557Y-84625000D01*
X182474557Y-84625000D02*
X182188842Y-84553572D01*
X182188842Y-84553572D02*
X182045985Y-84482143D01*
X182045985Y-84482143D02*
X181974557Y-84410715D01*
X181974557Y-84410715D02*
X181903128Y-84267857D01*
X181903128Y-82839286D02*
X181903128Y-82696429D01*
X181903128Y-82696429D02*
X181974557Y-82553572D01*
X181974557Y-82553572D02*
X182045985Y-82482144D01*
X182045985Y-82482144D02*
X182188842Y-82410715D01*
X182188842Y-82410715D02*
X182474557Y-82339286D01*
X182474557Y-82339286D02*
X182831700Y-82339286D01*
X182831700Y-82339286D02*
X183117414Y-82410715D01*
X183117414Y-82410715D02*
X183260271Y-82482144D01*
X183260271Y-82482144D02*
X183331700Y-82553572D01*
X183331700Y-82553572D02*
X183403128Y-82696429D01*
X183403128Y-82696429D02*
X183403128Y-82839286D01*
X183403128Y-82839286D02*
X183331700Y-82982144D01*
X183331700Y-82982144D02*
X183260271Y-83053572D01*
X183260271Y-83053572D02*
X183117414Y-83125001D01*
X183117414Y-83125001D02*
X182831700Y-83196429D01*
X182831700Y-83196429D02*
X182474557Y-83196429D01*
X182474557Y-83196429D02*
X182188842Y-83125001D01*
X182188842Y-83125001D02*
X182045985Y-83053572D01*
X182045985Y-83053572D02*
X181974557Y-82982144D01*
X181974557Y-82982144D02*
X181903128Y-82839286D01*
X183403128Y-80553573D02*
X182403128Y-80553573D01*
X182545985Y-80553573D02*
X182474557Y-80482144D01*
X182474557Y-80482144D02*
X182403128Y-80339287D01*
X182403128Y-80339287D02*
X182403128Y-80125001D01*
X182403128Y-80125001D02*
X182474557Y-79982144D01*
X182474557Y-79982144D02*
X182617414Y-79910716D01*
X182617414Y-79910716D02*
X183403128Y-79910716D01*
X182617414Y-79910716D02*
X182474557Y-79839287D01*
X182474557Y-79839287D02*
X182403128Y-79696430D01*
X182403128Y-79696430D02*
X182403128Y-79482144D01*
X182403128Y-79482144D02*
X182474557Y-79339287D01*
X182474557Y-79339287D02*
X182617414Y-79267858D01*
X182617414Y-79267858D02*
X183403128Y-79267858D01*
X183403128Y-78553573D02*
X182403128Y-78553573D01*
X182545985Y-78553573D02*
X182474557Y-78482144D01*
X182474557Y-78482144D02*
X182403128Y-78339287D01*
X182403128Y-78339287D02*
X182403128Y-78125001D01*
X182403128Y-78125001D02*
X182474557Y-77982144D01*
X182474557Y-77982144D02*
X182617414Y-77910716D01*
X182617414Y-77910716D02*
X183403128Y-77910716D01*
X182617414Y-77910716D02*
X182474557Y-77839287D01*
X182474557Y-77839287D02*
X182403128Y-77696430D01*
X182403128Y-77696430D02*
X182403128Y-77482144D01*
X182403128Y-77482144D02*
X182474557Y-77339287D01*
X182474557Y-77339287D02*
X182617414Y-77267858D01*
X182617414Y-77267858D02*
X183403128Y-77267858D01*
X175867000Y-99375001D02*
X184953420Y-99375001D01*
X175867000Y-68875001D02*
X184953420Y-68875001D01*
X184367000Y-99375001D02*
X184367000Y-68875001D01*
X184367000Y-99375001D02*
X184367000Y-68875001D01*
X184367000Y-99375001D02*
X183780579Y-98248497D01*
X184367000Y-99375001D02*
X184953421Y-98248497D01*
X184367000Y-68875001D02*
X184953421Y-70001505D01*
X184367000Y-68875001D02*
X183780579Y-70001505D01*
X176903128Y-91374999D02*
X176903128Y-90446427D01*
X176903128Y-90446427D02*
X177474557Y-90946427D01*
X177474557Y-90946427D02*
X177474557Y-90732142D01*
X177474557Y-90732142D02*
X177545985Y-90589285D01*
X177545985Y-90589285D02*
X177617414Y-90517856D01*
X177617414Y-90517856D02*
X177760271Y-90446427D01*
X177760271Y-90446427D02*
X178117414Y-90446427D01*
X178117414Y-90446427D02*
X178260271Y-90517856D01*
X178260271Y-90517856D02*
X178331700Y-90589285D01*
X178331700Y-90589285D02*
X178403128Y-90732142D01*
X178403128Y-90732142D02*
X178403128Y-91160713D01*
X178403128Y-91160713D02*
X178331700Y-91303570D01*
X178331700Y-91303570D02*
X178260271Y-91374999D01*
X176903128Y-89517856D02*
X176903128Y-89374999D01*
X176903128Y-89374999D02*
X176974557Y-89232142D01*
X176974557Y-89232142D02*
X177045985Y-89160714D01*
X177045985Y-89160714D02*
X177188842Y-89089285D01*
X177188842Y-89089285D02*
X177474557Y-89017856D01*
X177474557Y-89017856D02*
X177831700Y-89017856D01*
X177831700Y-89017856D02*
X178117414Y-89089285D01*
X178117414Y-89089285D02*
X178260271Y-89160714D01*
X178260271Y-89160714D02*
X178331700Y-89232142D01*
X178331700Y-89232142D02*
X178403128Y-89374999D01*
X178403128Y-89374999D02*
X178403128Y-89517856D01*
X178403128Y-89517856D02*
X178331700Y-89660714D01*
X178331700Y-89660714D02*
X178260271Y-89732142D01*
X178260271Y-89732142D02*
X178117414Y-89803571D01*
X178117414Y-89803571D02*
X177831700Y-89874999D01*
X177831700Y-89874999D02*
X177474557Y-89874999D01*
X177474557Y-89874999D02*
X177188842Y-89803571D01*
X177188842Y-89803571D02*
X177045985Y-89732142D01*
X177045985Y-89732142D02*
X176974557Y-89660714D01*
X176974557Y-89660714D02*
X176903128Y-89517856D01*
X178260271Y-88375000D02*
X178331700Y-88303571D01*
X178331700Y-88303571D02*
X178403128Y-88375000D01*
X178403128Y-88375000D02*
X178331700Y-88446428D01*
X178331700Y-88446428D02*
X178260271Y-88375000D01*
X178260271Y-88375000D02*
X178403128Y-88375000D01*
X176903128Y-87374999D02*
X176903128Y-87232142D01*
X176903128Y-87232142D02*
X176974557Y-87089285D01*
X176974557Y-87089285D02*
X177045985Y-87017857D01*
X177045985Y-87017857D02*
X177188842Y-86946428D01*
X177188842Y-86946428D02*
X177474557Y-86874999D01*
X177474557Y-86874999D02*
X177831700Y-86874999D01*
X177831700Y-86874999D02*
X178117414Y-86946428D01*
X178117414Y-86946428D02*
X178260271Y-87017857D01*
X178260271Y-87017857D02*
X178331700Y-87089285D01*
X178331700Y-87089285D02*
X178403128Y-87232142D01*
X178403128Y-87232142D02*
X178403128Y-87374999D01*
X178403128Y-87374999D02*
X178331700Y-87517857D01*
X178331700Y-87517857D02*
X178260271Y-87589285D01*
X178260271Y-87589285D02*
X178117414Y-87660714D01*
X178117414Y-87660714D02*
X177831700Y-87732142D01*
X177831700Y-87732142D02*
X177474557Y-87732142D01*
X177474557Y-87732142D02*
X177188842Y-87660714D01*
X177188842Y-87660714D02*
X177045985Y-87589285D01*
X177045985Y-87589285D02*
X176974557Y-87517857D01*
X176974557Y-87517857D02*
X176903128Y-87374999D01*
X176903128Y-85946428D02*
X176903128Y-85803571D01*
X176903128Y-85803571D02*
X176974557Y-85660714D01*
X176974557Y-85660714D02*
X177045985Y-85589286D01*
X177045985Y-85589286D02*
X177188842Y-85517857D01*
X177188842Y-85517857D02*
X177474557Y-85446428D01*
X177474557Y-85446428D02*
X177831700Y-85446428D01*
X177831700Y-85446428D02*
X178117414Y-85517857D01*
X178117414Y-85517857D02*
X178260271Y-85589286D01*
X178260271Y-85589286D02*
X178331700Y-85660714D01*
X178331700Y-85660714D02*
X178403128Y-85803571D01*
X178403128Y-85803571D02*
X178403128Y-85946428D01*
X178403128Y-85946428D02*
X178331700Y-86089286D01*
X178331700Y-86089286D02*
X178260271Y-86160714D01*
X178260271Y-86160714D02*
X178117414Y-86232143D01*
X178117414Y-86232143D02*
X177831700Y-86303571D01*
X177831700Y-86303571D02*
X177474557Y-86303571D01*
X177474557Y-86303571D02*
X177188842Y-86232143D01*
X177188842Y-86232143D02*
X177045985Y-86160714D01*
X177045985Y-86160714D02*
X176974557Y-86089286D01*
X176974557Y-86089286D02*
X176903128Y-85946428D01*
X176903128Y-84517857D02*
X176903128Y-84375000D01*
X176903128Y-84375000D02*
X176974557Y-84232143D01*
X176974557Y-84232143D02*
X177045985Y-84160715D01*
X177045985Y-84160715D02*
X177188842Y-84089286D01*
X177188842Y-84089286D02*
X177474557Y-84017857D01*
X177474557Y-84017857D02*
X177831700Y-84017857D01*
X177831700Y-84017857D02*
X178117414Y-84089286D01*
X178117414Y-84089286D02*
X178260271Y-84160715D01*
X178260271Y-84160715D02*
X178331700Y-84232143D01*
X178331700Y-84232143D02*
X178403128Y-84375000D01*
X178403128Y-84375000D02*
X178403128Y-84517857D01*
X178403128Y-84517857D02*
X178331700Y-84660715D01*
X178331700Y-84660715D02*
X178260271Y-84732143D01*
X178260271Y-84732143D02*
X178117414Y-84803572D01*
X178117414Y-84803572D02*
X177831700Y-84875000D01*
X177831700Y-84875000D02*
X177474557Y-84875000D01*
X177474557Y-84875000D02*
X177188842Y-84803572D01*
X177188842Y-84803572D02*
X177045985Y-84732143D01*
X177045985Y-84732143D02*
X176974557Y-84660715D01*
X176974557Y-84660715D02*
X176903128Y-84517857D01*
X176903128Y-83089286D02*
X176903128Y-82946429D01*
X176903128Y-82946429D02*
X176974557Y-82803572D01*
X176974557Y-82803572D02*
X177045985Y-82732144D01*
X177045985Y-82732144D02*
X177188842Y-82660715D01*
X177188842Y-82660715D02*
X177474557Y-82589286D01*
X177474557Y-82589286D02*
X177831700Y-82589286D01*
X177831700Y-82589286D02*
X178117414Y-82660715D01*
X178117414Y-82660715D02*
X178260271Y-82732144D01*
X178260271Y-82732144D02*
X178331700Y-82803572D01*
X178331700Y-82803572D02*
X178403128Y-82946429D01*
X178403128Y-82946429D02*
X178403128Y-83089286D01*
X178403128Y-83089286D02*
X178331700Y-83232144D01*
X178331700Y-83232144D02*
X178260271Y-83303572D01*
X178260271Y-83303572D02*
X178117414Y-83375001D01*
X178117414Y-83375001D02*
X177831700Y-83446429D01*
X177831700Y-83446429D02*
X177474557Y-83446429D01*
X177474557Y-83446429D02*
X177188842Y-83375001D01*
X177188842Y-83375001D02*
X177045985Y-83303572D01*
X177045985Y-83303572D02*
X176974557Y-83232144D01*
X176974557Y-83232144D02*
X176903128Y-83089286D01*
X178403128Y-80803573D02*
X177403128Y-80803573D01*
X177545985Y-80803573D02*
X177474557Y-80732144D01*
X177474557Y-80732144D02*
X177403128Y-80589287D01*
X177403128Y-80589287D02*
X177403128Y-80375001D01*
X177403128Y-80375001D02*
X177474557Y-80232144D01*
X177474557Y-80232144D02*
X177617414Y-80160716D01*
X177617414Y-80160716D02*
X178403128Y-80160716D01*
X177617414Y-80160716D02*
X177474557Y-80089287D01*
X177474557Y-80089287D02*
X177403128Y-79946430D01*
X177403128Y-79946430D02*
X177403128Y-79732144D01*
X177403128Y-79732144D02*
X177474557Y-79589287D01*
X177474557Y-79589287D02*
X177617414Y-79517858D01*
X177617414Y-79517858D02*
X178403128Y-79517858D01*
X178403128Y-78803573D02*
X177403128Y-78803573D01*
X177545985Y-78803573D02*
X177474557Y-78732144D01*
X177474557Y-78732144D02*
X177403128Y-78589287D01*
X177403128Y-78589287D02*
X177403128Y-78375001D01*
X177403128Y-78375001D02*
X177474557Y-78232144D01*
X177474557Y-78232144D02*
X177617414Y-78160716D01*
X177617414Y-78160716D02*
X178403128Y-78160716D01*
X177617414Y-78160716D02*
X177474557Y-78089287D01*
X177474557Y-78089287D02*
X177403128Y-77946430D01*
X177403128Y-77946430D02*
X177403128Y-77732144D01*
X177403128Y-77732144D02*
X177474557Y-77589287D01*
X177474557Y-77589287D02*
X177617414Y-77517858D01*
X177617414Y-77517858D02*
X178403128Y-77517858D01*
X175867000Y-99375001D02*
X179953420Y-99375001D01*
X175867000Y-69375001D02*
X179953420Y-69375001D01*
X179367000Y-99375001D02*
X179367000Y-69375001D01*
X179367000Y-99375001D02*
X179367000Y-69375001D01*
X179367000Y-99375001D02*
X178780579Y-98248497D01*
X179367000Y-99375001D02*
X179953421Y-98248497D01*
X179367000Y-69375001D02*
X179953421Y-70501505D01*
X179367000Y-69375001D02*
X178780579Y-70501505D01*
X105400169Y-100692229D02*
X106328741Y-100692229D01*
X106328741Y-100692229D02*
X105828741Y-101263658D01*
X105828741Y-101263658D02*
X106043026Y-101263658D01*
X106043026Y-101263658D02*
X106185884Y-101335086D01*
X106185884Y-101335086D02*
X106257312Y-101406515D01*
X106257312Y-101406515D02*
X106328741Y-101549372D01*
X106328741Y-101549372D02*
X106328741Y-101906515D01*
X106328741Y-101906515D02*
X106257312Y-102049372D01*
X106257312Y-102049372D02*
X106185884Y-102120801D01*
X106185884Y-102120801D02*
X106043026Y-102192229D01*
X106043026Y-102192229D02*
X105614455Y-102192229D01*
X105614455Y-102192229D02*
X105471598Y-102120801D01*
X105471598Y-102120801D02*
X105400169Y-102049372D01*
X106971597Y-102049372D02*
X107043026Y-102120801D01*
X107043026Y-102120801D02*
X106971597Y-102192229D01*
X106971597Y-102192229D02*
X106900169Y-102120801D01*
X106900169Y-102120801D02*
X106971597Y-102049372D01*
X106971597Y-102049372D02*
X106971597Y-102192229D01*
X108400169Y-100692229D02*
X107685883Y-100692229D01*
X107685883Y-100692229D02*
X107614455Y-101406515D01*
X107614455Y-101406515D02*
X107685883Y-101335086D01*
X107685883Y-101335086D02*
X107828741Y-101263658D01*
X107828741Y-101263658D02*
X108185883Y-101263658D01*
X108185883Y-101263658D02*
X108328741Y-101335086D01*
X108328741Y-101335086D02*
X108400169Y-101406515D01*
X108400169Y-101406515D02*
X108471598Y-101549372D01*
X108471598Y-101549372D02*
X108471598Y-101906515D01*
X108471598Y-101906515D02*
X108400169Y-102049372D01*
X108400169Y-102049372D02*
X108328741Y-102120801D01*
X108328741Y-102120801D02*
X108185883Y-102192229D01*
X108185883Y-102192229D02*
X107828741Y-102192229D01*
X107828741Y-102192229D02*
X107685883Y-102120801D01*
X107685883Y-102120801D02*
X107614455Y-102049372D01*
X109400169Y-100692229D02*
X109543026Y-100692229D01*
X109543026Y-100692229D02*
X109685883Y-100763658D01*
X109685883Y-100763658D02*
X109757312Y-100835086D01*
X109757312Y-100835086D02*
X109828740Y-100977943D01*
X109828740Y-100977943D02*
X109900169Y-101263658D01*
X109900169Y-101263658D02*
X109900169Y-101620801D01*
X109900169Y-101620801D02*
X109828740Y-101906515D01*
X109828740Y-101906515D02*
X109757312Y-102049372D01*
X109757312Y-102049372D02*
X109685883Y-102120801D01*
X109685883Y-102120801D02*
X109543026Y-102192229D01*
X109543026Y-102192229D02*
X109400169Y-102192229D01*
X109400169Y-102192229D02*
X109257312Y-102120801D01*
X109257312Y-102120801D02*
X109185883Y-102049372D01*
X109185883Y-102049372D02*
X109114454Y-101906515D01*
X109114454Y-101906515D02*
X109043026Y-101620801D01*
X109043026Y-101620801D02*
X109043026Y-101263658D01*
X109043026Y-101263658D02*
X109114454Y-100977943D01*
X109114454Y-100977943D02*
X109185883Y-100835086D01*
X109185883Y-100835086D02*
X109257312Y-100763658D01*
X109257312Y-100763658D02*
X109400169Y-100692229D01*
X110828740Y-100692229D02*
X110971597Y-100692229D01*
X110971597Y-100692229D02*
X111114454Y-100763658D01*
X111114454Y-100763658D02*
X111185883Y-100835086D01*
X111185883Y-100835086D02*
X111257311Y-100977943D01*
X111257311Y-100977943D02*
X111328740Y-101263658D01*
X111328740Y-101263658D02*
X111328740Y-101620801D01*
X111328740Y-101620801D02*
X111257311Y-101906515D01*
X111257311Y-101906515D02*
X111185883Y-102049372D01*
X111185883Y-102049372D02*
X111114454Y-102120801D01*
X111114454Y-102120801D02*
X110971597Y-102192229D01*
X110971597Y-102192229D02*
X110828740Y-102192229D01*
X110828740Y-102192229D02*
X110685883Y-102120801D01*
X110685883Y-102120801D02*
X110614454Y-102049372D01*
X110614454Y-102049372D02*
X110543025Y-101906515D01*
X110543025Y-101906515D02*
X110471597Y-101620801D01*
X110471597Y-101620801D02*
X110471597Y-101263658D01*
X110471597Y-101263658D02*
X110543025Y-100977943D01*
X110543025Y-100977943D02*
X110614454Y-100835086D01*
X110614454Y-100835086D02*
X110685883Y-100763658D01*
X110685883Y-100763658D02*
X110828740Y-100692229D01*
X112257311Y-100692229D02*
X112400168Y-100692229D01*
X112400168Y-100692229D02*
X112543025Y-100763658D01*
X112543025Y-100763658D02*
X112614454Y-100835086D01*
X112614454Y-100835086D02*
X112685882Y-100977943D01*
X112685882Y-100977943D02*
X112757311Y-101263658D01*
X112757311Y-101263658D02*
X112757311Y-101620801D01*
X112757311Y-101620801D02*
X112685882Y-101906515D01*
X112685882Y-101906515D02*
X112614454Y-102049372D01*
X112614454Y-102049372D02*
X112543025Y-102120801D01*
X112543025Y-102120801D02*
X112400168Y-102192229D01*
X112400168Y-102192229D02*
X112257311Y-102192229D01*
X112257311Y-102192229D02*
X112114454Y-102120801D01*
X112114454Y-102120801D02*
X112043025Y-102049372D01*
X112043025Y-102049372D02*
X111971596Y-101906515D01*
X111971596Y-101906515D02*
X111900168Y-101620801D01*
X111900168Y-101620801D02*
X111900168Y-101263658D01*
X111900168Y-101263658D02*
X111971596Y-100977943D01*
X111971596Y-100977943D02*
X112043025Y-100835086D01*
X112043025Y-100835086D02*
X112114454Y-100763658D01*
X112114454Y-100763658D02*
X112257311Y-100692229D01*
X114543024Y-102192229D02*
X114543024Y-101192229D01*
X114543024Y-101335086D02*
X114614453Y-101263658D01*
X114614453Y-101263658D02*
X114757310Y-101192229D01*
X114757310Y-101192229D02*
X114971596Y-101192229D01*
X114971596Y-101192229D02*
X115114453Y-101263658D01*
X115114453Y-101263658D02*
X115185882Y-101406515D01*
X115185882Y-101406515D02*
X115185882Y-102192229D01*
X115185882Y-101406515D02*
X115257310Y-101263658D01*
X115257310Y-101263658D02*
X115400167Y-101192229D01*
X115400167Y-101192229D02*
X115614453Y-101192229D01*
X115614453Y-101192229D02*
X115757310Y-101263658D01*
X115757310Y-101263658D02*
X115828739Y-101406515D01*
X115828739Y-101406515D02*
X115828739Y-102192229D01*
X116543024Y-102192229D02*
X116543024Y-101192229D01*
X116543024Y-101335086D02*
X116614453Y-101263658D01*
X116614453Y-101263658D02*
X116757310Y-101192229D01*
X116757310Y-101192229D02*
X116971596Y-101192229D01*
X116971596Y-101192229D02*
X117114453Y-101263658D01*
X117114453Y-101263658D02*
X117185882Y-101406515D01*
X117185882Y-101406515D02*
X117185882Y-102192229D01*
X117185882Y-101406515D02*
X117257310Y-101263658D01*
X117257310Y-101263658D02*
X117400167Y-101192229D01*
X117400167Y-101192229D02*
X117614453Y-101192229D01*
X117614453Y-101192229D02*
X117757310Y-101263658D01*
X117757310Y-101263658D02*
X117828739Y-101406515D01*
X117828739Y-101406515D02*
X117828739Y-102192229D01*
X113435883Y-100156101D02*
X113435883Y-103742521D01*
X109935883Y-100156101D02*
X109935883Y-103742521D01*
X113435883Y-103156101D02*
X109935883Y-103156101D01*
X113435883Y-103156101D02*
X109935883Y-103156101D01*
X113435883Y-103156101D02*
X112309379Y-103742522D01*
X113435883Y-103156101D02*
X112309379Y-102569680D01*
X109935883Y-103156101D02*
X111062387Y-102569680D01*
X109935883Y-103156101D02*
X111062387Y-103742522D01*
X136152716Y-58411129D02*
X135867001Y-58411129D01*
X135867001Y-58411129D02*
X135724144Y-58482558D01*
X135724144Y-58482558D02*
X135652716Y-58553986D01*
X135652716Y-58553986D02*
X135509858Y-58768272D01*
X135509858Y-58768272D02*
X135438430Y-59053986D01*
X135438430Y-59053986D02*
X135438430Y-59625415D01*
X135438430Y-59625415D02*
X135509858Y-59768272D01*
X135509858Y-59768272D02*
X135581287Y-59839701D01*
X135581287Y-59839701D02*
X135724144Y-59911129D01*
X135724144Y-59911129D02*
X136009858Y-59911129D01*
X136009858Y-59911129D02*
X136152716Y-59839701D01*
X136152716Y-59839701D02*
X136224144Y-59768272D01*
X136224144Y-59768272D02*
X136295573Y-59625415D01*
X136295573Y-59625415D02*
X136295573Y-59268272D01*
X136295573Y-59268272D02*
X136224144Y-59125415D01*
X136224144Y-59125415D02*
X136152716Y-59053986D01*
X136152716Y-59053986D02*
X136009858Y-58982558D01*
X136009858Y-58982558D02*
X135724144Y-58982558D01*
X135724144Y-58982558D02*
X135581287Y-59053986D01*
X135581287Y-59053986D02*
X135509858Y-59125415D01*
X135509858Y-59125415D02*
X135438430Y-59268272D01*
X137652715Y-58411129D02*
X136938429Y-58411129D01*
X136938429Y-58411129D02*
X136867001Y-59125415D01*
X136867001Y-59125415D02*
X136938429Y-59053986D01*
X136938429Y-59053986D02*
X137081287Y-58982558D01*
X137081287Y-58982558D02*
X137438429Y-58982558D01*
X137438429Y-58982558D02*
X137581287Y-59053986D01*
X137581287Y-59053986D02*
X137652715Y-59125415D01*
X137652715Y-59125415D02*
X137724144Y-59268272D01*
X137724144Y-59268272D02*
X137724144Y-59625415D01*
X137724144Y-59625415D02*
X137652715Y-59768272D01*
X137652715Y-59768272D02*
X137581287Y-59839701D01*
X137581287Y-59839701D02*
X137438429Y-59911129D01*
X137438429Y-59911129D02*
X137081287Y-59911129D01*
X137081287Y-59911129D02*
X136938429Y-59839701D01*
X136938429Y-59839701D02*
X136867001Y-59768272D01*
X138367000Y-59768272D02*
X138438429Y-59839701D01*
X138438429Y-59839701D02*
X138367000Y-59911129D01*
X138367000Y-59911129D02*
X138295572Y-59839701D01*
X138295572Y-59839701D02*
X138367000Y-59768272D01*
X138367000Y-59768272D02*
X138367000Y-59911129D01*
X139367001Y-58411129D02*
X139509858Y-58411129D01*
X139509858Y-58411129D02*
X139652715Y-58482558D01*
X139652715Y-58482558D02*
X139724144Y-58553986D01*
X139724144Y-58553986D02*
X139795572Y-58696843D01*
X139795572Y-58696843D02*
X139867001Y-58982558D01*
X139867001Y-58982558D02*
X139867001Y-59339701D01*
X139867001Y-59339701D02*
X139795572Y-59625415D01*
X139795572Y-59625415D02*
X139724144Y-59768272D01*
X139724144Y-59768272D02*
X139652715Y-59839701D01*
X139652715Y-59839701D02*
X139509858Y-59911129D01*
X139509858Y-59911129D02*
X139367001Y-59911129D01*
X139367001Y-59911129D02*
X139224144Y-59839701D01*
X139224144Y-59839701D02*
X139152715Y-59768272D01*
X139152715Y-59768272D02*
X139081286Y-59625415D01*
X139081286Y-59625415D02*
X139009858Y-59339701D01*
X139009858Y-59339701D02*
X139009858Y-58982558D01*
X139009858Y-58982558D02*
X139081286Y-58696843D01*
X139081286Y-58696843D02*
X139152715Y-58553986D01*
X139152715Y-58553986D02*
X139224144Y-58482558D01*
X139224144Y-58482558D02*
X139367001Y-58411129D01*
X140795572Y-58411129D02*
X140938429Y-58411129D01*
X140938429Y-58411129D02*
X141081286Y-58482558D01*
X141081286Y-58482558D02*
X141152715Y-58553986D01*
X141152715Y-58553986D02*
X141224143Y-58696843D01*
X141224143Y-58696843D02*
X141295572Y-58982558D01*
X141295572Y-58982558D02*
X141295572Y-59339701D01*
X141295572Y-59339701D02*
X141224143Y-59625415D01*
X141224143Y-59625415D02*
X141152715Y-59768272D01*
X141152715Y-59768272D02*
X141081286Y-59839701D01*
X141081286Y-59839701D02*
X140938429Y-59911129D01*
X140938429Y-59911129D02*
X140795572Y-59911129D01*
X140795572Y-59911129D02*
X140652715Y-59839701D01*
X140652715Y-59839701D02*
X140581286Y-59768272D01*
X140581286Y-59768272D02*
X140509857Y-59625415D01*
X140509857Y-59625415D02*
X140438429Y-59339701D01*
X140438429Y-59339701D02*
X140438429Y-58982558D01*
X140438429Y-58982558D02*
X140509857Y-58696843D01*
X140509857Y-58696843D02*
X140581286Y-58553986D01*
X140581286Y-58553986D02*
X140652715Y-58482558D01*
X140652715Y-58482558D02*
X140795572Y-58411129D01*
X142224143Y-58411129D02*
X142367000Y-58411129D01*
X142367000Y-58411129D02*
X142509857Y-58482558D01*
X142509857Y-58482558D02*
X142581286Y-58553986D01*
X142581286Y-58553986D02*
X142652714Y-58696843D01*
X142652714Y-58696843D02*
X142724143Y-58982558D01*
X142724143Y-58982558D02*
X142724143Y-59339701D01*
X142724143Y-59339701D02*
X142652714Y-59625415D01*
X142652714Y-59625415D02*
X142581286Y-59768272D01*
X142581286Y-59768272D02*
X142509857Y-59839701D01*
X142509857Y-59839701D02*
X142367000Y-59911129D01*
X142367000Y-59911129D02*
X142224143Y-59911129D01*
X142224143Y-59911129D02*
X142081286Y-59839701D01*
X142081286Y-59839701D02*
X142009857Y-59768272D01*
X142009857Y-59768272D02*
X141938428Y-59625415D01*
X141938428Y-59625415D02*
X141867000Y-59339701D01*
X141867000Y-59339701D02*
X141867000Y-58982558D01*
X141867000Y-58982558D02*
X141938428Y-58696843D01*
X141938428Y-58696843D02*
X142009857Y-58553986D01*
X142009857Y-58553986D02*
X142081286Y-58482558D01*
X142081286Y-58482558D02*
X142224143Y-58411129D01*
X143652714Y-58411129D02*
X143795571Y-58411129D01*
X143795571Y-58411129D02*
X143938428Y-58482558D01*
X143938428Y-58482558D02*
X144009857Y-58553986D01*
X144009857Y-58553986D02*
X144081285Y-58696843D01*
X144081285Y-58696843D02*
X144152714Y-58982558D01*
X144152714Y-58982558D02*
X144152714Y-59339701D01*
X144152714Y-59339701D02*
X144081285Y-59625415D01*
X144081285Y-59625415D02*
X144009857Y-59768272D01*
X144009857Y-59768272D02*
X143938428Y-59839701D01*
X143938428Y-59839701D02*
X143795571Y-59911129D01*
X143795571Y-59911129D02*
X143652714Y-59911129D01*
X143652714Y-59911129D02*
X143509857Y-59839701D01*
X143509857Y-59839701D02*
X143438428Y-59768272D01*
X143438428Y-59768272D02*
X143366999Y-59625415D01*
X143366999Y-59625415D02*
X143295571Y-59339701D01*
X143295571Y-59339701D02*
X143295571Y-58982558D01*
X143295571Y-58982558D02*
X143366999Y-58696843D01*
X143366999Y-58696843D02*
X143438428Y-58553986D01*
X143438428Y-58553986D02*
X143509857Y-58482558D01*
X143509857Y-58482558D02*
X143652714Y-58411129D01*
X145938427Y-59911129D02*
X145938427Y-58911129D01*
X145938427Y-59053986D02*
X146009856Y-58982558D01*
X146009856Y-58982558D02*
X146152713Y-58911129D01*
X146152713Y-58911129D02*
X146366999Y-58911129D01*
X146366999Y-58911129D02*
X146509856Y-58982558D01*
X146509856Y-58982558D02*
X146581285Y-59125415D01*
X146581285Y-59125415D02*
X146581285Y-59911129D01*
X146581285Y-59125415D02*
X146652713Y-58982558D01*
X146652713Y-58982558D02*
X146795570Y-58911129D01*
X146795570Y-58911129D02*
X147009856Y-58911129D01*
X147009856Y-58911129D02*
X147152713Y-58982558D01*
X147152713Y-58982558D02*
X147224142Y-59125415D01*
X147224142Y-59125415D02*
X147224142Y-59911129D01*
X147938427Y-59911129D02*
X147938427Y-58911129D01*
X147938427Y-59053986D02*
X148009856Y-58982558D01*
X148009856Y-58982558D02*
X148152713Y-58911129D01*
X148152713Y-58911129D02*
X148366999Y-58911129D01*
X148366999Y-58911129D02*
X148509856Y-58982558D01*
X148509856Y-58982558D02*
X148581285Y-59125415D01*
X148581285Y-59125415D02*
X148581285Y-59911129D01*
X148581285Y-59125415D02*
X148652713Y-58982558D01*
X148652713Y-58982558D02*
X148795570Y-58911129D01*
X148795570Y-58911129D02*
X149009856Y-58911129D01*
X149009856Y-58911129D02*
X149152713Y-58982558D01*
X149152713Y-58982558D02*
X149224142Y-59125415D01*
X149224142Y-59125415D02*
X149224142Y-59911129D01*
X174867000Y-67875001D02*
X174867000Y-60288581D01*
X109867000Y-67875001D02*
X109867000Y-60288581D01*
X174867000Y-60875001D02*
X109867000Y-60875001D01*
X174867000Y-60875001D02*
X109867000Y-60875001D01*
X174867000Y-60875001D02*
X173740496Y-61461422D01*
X174867000Y-60875001D02*
X173740496Y-60288580D01*
X109867000Y-60875001D02*
X110993504Y-60288580D01*
X109867000Y-60875001D02*
X110993504Y-61461422D01*
X104045985Y-91303570D02*
X103974557Y-91232142D01*
X103974557Y-91232142D02*
X103903128Y-91089285D01*
X103903128Y-91089285D02*
X103903128Y-90732142D01*
X103903128Y-90732142D02*
X103974557Y-90589285D01*
X103974557Y-90589285D02*
X104045985Y-90517856D01*
X104045985Y-90517856D02*
X104188842Y-90446427D01*
X104188842Y-90446427D02*
X104331700Y-90446427D01*
X104331700Y-90446427D02*
X104545985Y-90517856D01*
X104545985Y-90517856D02*
X105403128Y-91374999D01*
X105403128Y-91374999D02*
X105403128Y-90446427D01*
X103903128Y-89946428D02*
X103903128Y-89017856D01*
X103903128Y-89017856D02*
X104474557Y-89517856D01*
X104474557Y-89517856D02*
X104474557Y-89303571D01*
X104474557Y-89303571D02*
X104545985Y-89160714D01*
X104545985Y-89160714D02*
X104617414Y-89089285D01*
X104617414Y-89089285D02*
X104760271Y-89017856D01*
X104760271Y-89017856D02*
X105117414Y-89017856D01*
X105117414Y-89017856D02*
X105260271Y-89089285D01*
X105260271Y-89089285D02*
X105331700Y-89160714D01*
X105331700Y-89160714D02*
X105403128Y-89303571D01*
X105403128Y-89303571D02*
X105403128Y-89732142D01*
X105403128Y-89732142D02*
X105331700Y-89874999D01*
X105331700Y-89874999D02*
X105260271Y-89946428D01*
X105260271Y-88375000D02*
X105331700Y-88303571D01*
X105331700Y-88303571D02*
X105403128Y-88375000D01*
X105403128Y-88375000D02*
X105331700Y-88446428D01*
X105331700Y-88446428D02*
X105260271Y-88375000D01*
X105260271Y-88375000D02*
X105403128Y-88375000D01*
X103903128Y-87374999D02*
X103903128Y-87232142D01*
X103903128Y-87232142D02*
X103974557Y-87089285D01*
X103974557Y-87089285D02*
X104045985Y-87017857D01*
X104045985Y-87017857D02*
X104188842Y-86946428D01*
X104188842Y-86946428D02*
X104474557Y-86874999D01*
X104474557Y-86874999D02*
X104831700Y-86874999D01*
X104831700Y-86874999D02*
X105117414Y-86946428D01*
X105117414Y-86946428D02*
X105260271Y-87017857D01*
X105260271Y-87017857D02*
X105331700Y-87089285D01*
X105331700Y-87089285D02*
X105403128Y-87232142D01*
X105403128Y-87232142D02*
X105403128Y-87374999D01*
X105403128Y-87374999D02*
X105331700Y-87517857D01*
X105331700Y-87517857D02*
X105260271Y-87589285D01*
X105260271Y-87589285D02*
X105117414Y-87660714D01*
X105117414Y-87660714D02*
X104831700Y-87732142D01*
X104831700Y-87732142D02*
X104474557Y-87732142D01*
X104474557Y-87732142D02*
X104188842Y-87660714D01*
X104188842Y-87660714D02*
X104045985Y-87589285D01*
X104045985Y-87589285D02*
X103974557Y-87517857D01*
X103974557Y-87517857D02*
X103903128Y-87374999D01*
X103903128Y-85946428D02*
X103903128Y-85803571D01*
X103903128Y-85803571D02*
X103974557Y-85660714D01*
X103974557Y-85660714D02*
X104045985Y-85589286D01*
X104045985Y-85589286D02*
X104188842Y-85517857D01*
X104188842Y-85517857D02*
X104474557Y-85446428D01*
X104474557Y-85446428D02*
X104831700Y-85446428D01*
X104831700Y-85446428D02*
X105117414Y-85517857D01*
X105117414Y-85517857D02*
X105260271Y-85589286D01*
X105260271Y-85589286D02*
X105331700Y-85660714D01*
X105331700Y-85660714D02*
X105403128Y-85803571D01*
X105403128Y-85803571D02*
X105403128Y-85946428D01*
X105403128Y-85946428D02*
X105331700Y-86089286D01*
X105331700Y-86089286D02*
X105260271Y-86160714D01*
X105260271Y-86160714D02*
X105117414Y-86232143D01*
X105117414Y-86232143D02*
X104831700Y-86303571D01*
X104831700Y-86303571D02*
X104474557Y-86303571D01*
X104474557Y-86303571D02*
X104188842Y-86232143D01*
X104188842Y-86232143D02*
X104045985Y-86160714D01*
X104045985Y-86160714D02*
X103974557Y-86089286D01*
X103974557Y-86089286D02*
X103903128Y-85946428D01*
X103903128Y-84517857D02*
X103903128Y-84375000D01*
X103903128Y-84375000D02*
X103974557Y-84232143D01*
X103974557Y-84232143D02*
X104045985Y-84160715D01*
X104045985Y-84160715D02*
X104188842Y-84089286D01*
X104188842Y-84089286D02*
X104474557Y-84017857D01*
X104474557Y-84017857D02*
X104831700Y-84017857D01*
X104831700Y-84017857D02*
X105117414Y-84089286D01*
X105117414Y-84089286D02*
X105260271Y-84160715D01*
X105260271Y-84160715D02*
X105331700Y-84232143D01*
X105331700Y-84232143D02*
X105403128Y-84375000D01*
X105403128Y-84375000D02*
X105403128Y-84517857D01*
X105403128Y-84517857D02*
X105331700Y-84660715D01*
X105331700Y-84660715D02*
X105260271Y-84732143D01*
X105260271Y-84732143D02*
X105117414Y-84803572D01*
X105117414Y-84803572D02*
X104831700Y-84875000D01*
X104831700Y-84875000D02*
X104474557Y-84875000D01*
X104474557Y-84875000D02*
X104188842Y-84803572D01*
X104188842Y-84803572D02*
X104045985Y-84732143D01*
X104045985Y-84732143D02*
X103974557Y-84660715D01*
X103974557Y-84660715D02*
X103903128Y-84517857D01*
X103903128Y-83089286D02*
X103903128Y-82946429D01*
X103903128Y-82946429D02*
X103974557Y-82803572D01*
X103974557Y-82803572D02*
X104045985Y-82732144D01*
X104045985Y-82732144D02*
X104188842Y-82660715D01*
X104188842Y-82660715D02*
X104474557Y-82589286D01*
X104474557Y-82589286D02*
X104831700Y-82589286D01*
X104831700Y-82589286D02*
X105117414Y-82660715D01*
X105117414Y-82660715D02*
X105260271Y-82732144D01*
X105260271Y-82732144D02*
X105331700Y-82803572D01*
X105331700Y-82803572D02*
X105403128Y-82946429D01*
X105403128Y-82946429D02*
X105403128Y-83089286D01*
X105403128Y-83089286D02*
X105331700Y-83232144D01*
X105331700Y-83232144D02*
X105260271Y-83303572D01*
X105260271Y-83303572D02*
X105117414Y-83375001D01*
X105117414Y-83375001D02*
X104831700Y-83446429D01*
X104831700Y-83446429D02*
X104474557Y-83446429D01*
X104474557Y-83446429D02*
X104188842Y-83375001D01*
X104188842Y-83375001D02*
X104045985Y-83303572D01*
X104045985Y-83303572D02*
X103974557Y-83232144D01*
X103974557Y-83232144D02*
X103903128Y-83089286D01*
X105403128Y-80803573D02*
X104403128Y-80803573D01*
X104545985Y-80803573D02*
X104474557Y-80732144D01*
X104474557Y-80732144D02*
X104403128Y-80589287D01*
X104403128Y-80589287D02*
X104403128Y-80375001D01*
X104403128Y-80375001D02*
X104474557Y-80232144D01*
X104474557Y-80232144D02*
X104617414Y-80160716D01*
X104617414Y-80160716D02*
X105403128Y-80160716D01*
X104617414Y-80160716D02*
X104474557Y-80089287D01*
X104474557Y-80089287D02*
X104403128Y-79946430D01*
X104403128Y-79946430D02*
X104403128Y-79732144D01*
X104403128Y-79732144D02*
X104474557Y-79589287D01*
X104474557Y-79589287D02*
X104617414Y-79517858D01*
X104617414Y-79517858D02*
X105403128Y-79517858D01*
X105403128Y-78803573D02*
X104403128Y-78803573D01*
X104545985Y-78803573D02*
X104474557Y-78732144D01*
X104474557Y-78732144D02*
X104403128Y-78589287D01*
X104403128Y-78589287D02*
X104403128Y-78375001D01*
X104403128Y-78375001D02*
X104474557Y-78232144D01*
X104474557Y-78232144D02*
X104617414Y-78160716D01*
X104617414Y-78160716D02*
X105403128Y-78160716D01*
X104617414Y-78160716D02*
X104474557Y-78089287D01*
X104474557Y-78089287D02*
X104403128Y-77946430D01*
X104403128Y-77946430D02*
X104403128Y-77732144D01*
X104403128Y-77732144D02*
X104474557Y-77589287D01*
X104474557Y-77589287D02*
X104617414Y-77517858D01*
X104617414Y-77517858D02*
X105403128Y-77517858D01*
X108867000Y-72875001D02*
X105780580Y-72875001D01*
X108867000Y-95875001D02*
X105780580Y-95875001D01*
X106367000Y-72875001D02*
X106367000Y-95875001D01*
X106367000Y-72875001D02*
X106367000Y-95875001D01*
X106367000Y-72875001D02*
X106953421Y-74001505D01*
X106367000Y-72875001D02*
X105780579Y-74001505D01*
X106367000Y-95875001D02*
X105780579Y-94748497D01*
X106367000Y-95875001D02*
X106953421Y-94748497D01*
X136224144Y-62911129D02*
X135509858Y-62911129D01*
X135509858Y-62911129D02*
X135438430Y-63625415D01*
X135438430Y-63625415D02*
X135509858Y-63553986D01*
X135509858Y-63553986D02*
X135652716Y-63482558D01*
X135652716Y-63482558D02*
X136009858Y-63482558D01*
X136009858Y-63482558D02*
X136152716Y-63553986D01*
X136152716Y-63553986D02*
X136224144Y-63625415D01*
X136224144Y-63625415D02*
X136295573Y-63768272D01*
X136295573Y-63768272D02*
X136295573Y-64125415D01*
X136295573Y-64125415D02*
X136224144Y-64268272D01*
X136224144Y-64268272D02*
X136152716Y-64339701D01*
X136152716Y-64339701D02*
X136009858Y-64411129D01*
X136009858Y-64411129D02*
X135652716Y-64411129D01*
X135652716Y-64411129D02*
X135509858Y-64339701D01*
X135509858Y-64339701D02*
X135438430Y-64268272D01*
X137152715Y-63553986D02*
X137009858Y-63482558D01*
X137009858Y-63482558D02*
X136938429Y-63411129D01*
X136938429Y-63411129D02*
X136867001Y-63268272D01*
X136867001Y-63268272D02*
X136867001Y-63196843D01*
X136867001Y-63196843D02*
X136938429Y-63053986D01*
X136938429Y-63053986D02*
X137009858Y-62982558D01*
X137009858Y-62982558D02*
X137152715Y-62911129D01*
X137152715Y-62911129D02*
X137438429Y-62911129D01*
X137438429Y-62911129D02*
X137581287Y-62982558D01*
X137581287Y-62982558D02*
X137652715Y-63053986D01*
X137652715Y-63053986D02*
X137724144Y-63196843D01*
X137724144Y-63196843D02*
X137724144Y-63268272D01*
X137724144Y-63268272D02*
X137652715Y-63411129D01*
X137652715Y-63411129D02*
X137581287Y-63482558D01*
X137581287Y-63482558D02*
X137438429Y-63553986D01*
X137438429Y-63553986D02*
X137152715Y-63553986D01*
X137152715Y-63553986D02*
X137009858Y-63625415D01*
X137009858Y-63625415D02*
X136938429Y-63696843D01*
X136938429Y-63696843D02*
X136867001Y-63839701D01*
X136867001Y-63839701D02*
X136867001Y-64125415D01*
X136867001Y-64125415D02*
X136938429Y-64268272D01*
X136938429Y-64268272D02*
X137009858Y-64339701D01*
X137009858Y-64339701D02*
X137152715Y-64411129D01*
X137152715Y-64411129D02*
X137438429Y-64411129D01*
X137438429Y-64411129D02*
X137581287Y-64339701D01*
X137581287Y-64339701D02*
X137652715Y-64268272D01*
X137652715Y-64268272D02*
X137724144Y-64125415D01*
X137724144Y-64125415D02*
X137724144Y-63839701D01*
X137724144Y-63839701D02*
X137652715Y-63696843D01*
X137652715Y-63696843D02*
X137581287Y-63625415D01*
X137581287Y-63625415D02*
X137438429Y-63553986D01*
X138367000Y-64268272D02*
X138438429Y-64339701D01*
X138438429Y-64339701D02*
X138367000Y-64411129D01*
X138367000Y-64411129D02*
X138295572Y-64339701D01*
X138295572Y-64339701D02*
X138367000Y-64268272D01*
X138367000Y-64268272D02*
X138367000Y-64411129D01*
X139367001Y-62911129D02*
X139509858Y-62911129D01*
X139509858Y-62911129D02*
X139652715Y-62982558D01*
X139652715Y-62982558D02*
X139724144Y-63053986D01*
X139724144Y-63053986D02*
X139795572Y-63196843D01*
X139795572Y-63196843D02*
X139867001Y-63482558D01*
X139867001Y-63482558D02*
X139867001Y-63839701D01*
X139867001Y-63839701D02*
X139795572Y-64125415D01*
X139795572Y-64125415D02*
X139724144Y-64268272D01*
X139724144Y-64268272D02*
X139652715Y-64339701D01*
X139652715Y-64339701D02*
X139509858Y-64411129D01*
X139509858Y-64411129D02*
X139367001Y-64411129D01*
X139367001Y-64411129D02*
X139224144Y-64339701D01*
X139224144Y-64339701D02*
X139152715Y-64268272D01*
X139152715Y-64268272D02*
X139081286Y-64125415D01*
X139081286Y-64125415D02*
X139009858Y-63839701D01*
X139009858Y-63839701D02*
X139009858Y-63482558D01*
X139009858Y-63482558D02*
X139081286Y-63196843D01*
X139081286Y-63196843D02*
X139152715Y-63053986D01*
X139152715Y-63053986D02*
X139224144Y-62982558D01*
X139224144Y-62982558D02*
X139367001Y-62911129D01*
X140795572Y-62911129D02*
X140938429Y-62911129D01*
X140938429Y-62911129D02*
X141081286Y-62982558D01*
X141081286Y-62982558D02*
X141152715Y-63053986D01*
X141152715Y-63053986D02*
X141224143Y-63196843D01*
X141224143Y-63196843D02*
X141295572Y-63482558D01*
X141295572Y-63482558D02*
X141295572Y-63839701D01*
X141295572Y-63839701D02*
X141224143Y-64125415D01*
X141224143Y-64125415D02*
X141152715Y-64268272D01*
X141152715Y-64268272D02*
X141081286Y-64339701D01*
X141081286Y-64339701D02*
X140938429Y-64411129D01*
X140938429Y-64411129D02*
X140795572Y-64411129D01*
X140795572Y-64411129D02*
X140652715Y-64339701D01*
X140652715Y-64339701D02*
X140581286Y-64268272D01*
X140581286Y-64268272D02*
X140509857Y-64125415D01*
X140509857Y-64125415D02*
X140438429Y-63839701D01*
X140438429Y-63839701D02*
X140438429Y-63482558D01*
X140438429Y-63482558D02*
X140509857Y-63196843D01*
X140509857Y-63196843D02*
X140581286Y-63053986D01*
X140581286Y-63053986D02*
X140652715Y-62982558D01*
X140652715Y-62982558D02*
X140795572Y-62911129D01*
X142224143Y-62911129D02*
X142367000Y-62911129D01*
X142367000Y-62911129D02*
X142509857Y-62982558D01*
X142509857Y-62982558D02*
X142581286Y-63053986D01*
X142581286Y-63053986D02*
X142652714Y-63196843D01*
X142652714Y-63196843D02*
X142724143Y-63482558D01*
X142724143Y-63482558D02*
X142724143Y-63839701D01*
X142724143Y-63839701D02*
X142652714Y-64125415D01*
X142652714Y-64125415D02*
X142581286Y-64268272D01*
X142581286Y-64268272D02*
X142509857Y-64339701D01*
X142509857Y-64339701D02*
X142367000Y-64411129D01*
X142367000Y-64411129D02*
X142224143Y-64411129D01*
X142224143Y-64411129D02*
X142081286Y-64339701D01*
X142081286Y-64339701D02*
X142009857Y-64268272D01*
X142009857Y-64268272D02*
X141938428Y-64125415D01*
X141938428Y-64125415D02*
X141867000Y-63839701D01*
X141867000Y-63839701D02*
X141867000Y-63482558D01*
X141867000Y-63482558D02*
X141938428Y-63196843D01*
X141938428Y-63196843D02*
X142009857Y-63053986D01*
X142009857Y-63053986D02*
X142081286Y-62982558D01*
X142081286Y-62982558D02*
X142224143Y-62911129D01*
X143652714Y-62911129D02*
X143795571Y-62911129D01*
X143795571Y-62911129D02*
X143938428Y-62982558D01*
X143938428Y-62982558D02*
X144009857Y-63053986D01*
X144009857Y-63053986D02*
X144081285Y-63196843D01*
X144081285Y-63196843D02*
X144152714Y-63482558D01*
X144152714Y-63482558D02*
X144152714Y-63839701D01*
X144152714Y-63839701D02*
X144081285Y-64125415D01*
X144081285Y-64125415D02*
X144009857Y-64268272D01*
X144009857Y-64268272D02*
X143938428Y-64339701D01*
X143938428Y-64339701D02*
X143795571Y-64411129D01*
X143795571Y-64411129D02*
X143652714Y-64411129D01*
X143652714Y-64411129D02*
X143509857Y-64339701D01*
X143509857Y-64339701D02*
X143438428Y-64268272D01*
X143438428Y-64268272D02*
X143366999Y-64125415D01*
X143366999Y-64125415D02*
X143295571Y-63839701D01*
X143295571Y-63839701D02*
X143295571Y-63482558D01*
X143295571Y-63482558D02*
X143366999Y-63196843D01*
X143366999Y-63196843D02*
X143438428Y-63053986D01*
X143438428Y-63053986D02*
X143509857Y-62982558D01*
X143509857Y-62982558D02*
X143652714Y-62911129D01*
X145938427Y-64411129D02*
X145938427Y-63411129D01*
X145938427Y-63553986D02*
X146009856Y-63482558D01*
X146009856Y-63482558D02*
X146152713Y-63411129D01*
X146152713Y-63411129D02*
X146366999Y-63411129D01*
X146366999Y-63411129D02*
X146509856Y-63482558D01*
X146509856Y-63482558D02*
X146581285Y-63625415D01*
X146581285Y-63625415D02*
X146581285Y-64411129D01*
X146581285Y-63625415D02*
X146652713Y-63482558D01*
X146652713Y-63482558D02*
X146795570Y-63411129D01*
X146795570Y-63411129D02*
X147009856Y-63411129D01*
X147009856Y-63411129D02*
X147152713Y-63482558D01*
X147152713Y-63482558D02*
X147224142Y-63625415D01*
X147224142Y-63625415D02*
X147224142Y-64411129D01*
X147938427Y-64411129D02*
X147938427Y-63411129D01*
X147938427Y-63553986D02*
X148009856Y-63482558D01*
X148009856Y-63482558D02*
X148152713Y-63411129D01*
X148152713Y-63411129D02*
X148366999Y-63411129D01*
X148366999Y-63411129D02*
X148509856Y-63482558D01*
X148509856Y-63482558D02*
X148581285Y-63625415D01*
X148581285Y-63625415D02*
X148581285Y-64411129D01*
X148581285Y-63625415D02*
X148652713Y-63482558D01*
X148652713Y-63482558D02*
X148795570Y-63411129D01*
X148795570Y-63411129D02*
X149009856Y-63411129D01*
X149009856Y-63411129D02*
X149152713Y-63482558D01*
X149152713Y-63482558D02*
X149224142Y-63625415D01*
X149224142Y-63625415D02*
X149224142Y-64411129D01*
X171367000Y-67875001D02*
X171367000Y-64788581D01*
X113367000Y-67875001D02*
X113367000Y-64788581D01*
X171367000Y-65375001D02*
X113367000Y-65375001D01*
X171367000Y-65375001D02*
X113367000Y-65375001D01*
X171367000Y-65375001D02*
X170240496Y-65961422D01*
X171367000Y-65375001D02*
X170240496Y-64788580D01*
X113367000Y-65375001D02*
X114493504Y-64788580D01*
X113367000Y-65375001D02*
X114493504Y-65961422D01*
X120938430Y-77053985D02*
X121009858Y-76982557D01*
X121009858Y-76982557D02*
X121152716Y-76911128D01*
X121152716Y-76911128D02*
X121509858Y-76911128D01*
X121509858Y-76911128D02*
X121652716Y-76982557D01*
X121652716Y-76982557D02*
X121724144Y-77053985D01*
X121724144Y-77053985D02*
X121795573Y-77196842D01*
X121795573Y-77196842D02*
X121795573Y-77339700D01*
X121795573Y-77339700D02*
X121724144Y-77553985D01*
X121724144Y-77553985D02*
X120867001Y-78411128D01*
X120867001Y-78411128D02*
X121795573Y-78411128D01*
X122509858Y-78411128D02*
X122795572Y-78411128D01*
X122795572Y-78411128D02*
X122938429Y-78339700D01*
X122938429Y-78339700D02*
X123009858Y-78268271D01*
X123009858Y-78268271D02*
X123152715Y-78053985D01*
X123152715Y-78053985D02*
X123224144Y-77768271D01*
X123224144Y-77768271D02*
X123224144Y-77196842D01*
X123224144Y-77196842D02*
X123152715Y-77053985D01*
X123152715Y-77053985D02*
X123081287Y-76982557D01*
X123081287Y-76982557D02*
X122938429Y-76911128D01*
X122938429Y-76911128D02*
X122652715Y-76911128D01*
X122652715Y-76911128D02*
X122509858Y-76982557D01*
X122509858Y-76982557D02*
X122438429Y-77053985D01*
X122438429Y-77053985D02*
X122367001Y-77196842D01*
X122367001Y-77196842D02*
X122367001Y-77553985D01*
X122367001Y-77553985D02*
X122438429Y-77696842D01*
X122438429Y-77696842D02*
X122509858Y-77768271D01*
X122509858Y-77768271D02*
X122652715Y-77839700D01*
X122652715Y-77839700D02*
X122938429Y-77839700D01*
X122938429Y-77839700D02*
X123081287Y-77768271D01*
X123081287Y-77768271D02*
X123152715Y-77696842D01*
X123152715Y-77696842D02*
X123224144Y-77553985D01*
X123867000Y-78268271D02*
X123938429Y-78339700D01*
X123938429Y-78339700D02*
X123867000Y-78411128D01*
X123867000Y-78411128D02*
X123795572Y-78339700D01*
X123795572Y-78339700D02*
X123867000Y-78268271D01*
X123867000Y-78268271D02*
X123867000Y-78411128D01*
X124867001Y-76911128D02*
X125009858Y-76911128D01*
X125009858Y-76911128D02*
X125152715Y-76982557D01*
X125152715Y-76982557D02*
X125224144Y-77053985D01*
X125224144Y-77053985D02*
X125295572Y-77196842D01*
X125295572Y-77196842D02*
X125367001Y-77482557D01*
X125367001Y-77482557D02*
X125367001Y-77839700D01*
X125367001Y-77839700D02*
X125295572Y-78125414D01*
X125295572Y-78125414D02*
X125224144Y-78268271D01*
X125224144Y-78268271D02*
X125152715Y-78339700D01*
X125152715Y-78339700D02*
X125009858Y-78411128D01*
X125009858Y-78411128D02*
X124867001Y-78411128D01*
X124867001Y-78411128D02*
X124724144Y-78339700D01*
X124724144Y-78339700D02*
X124652715Y-78268271D01*
X124652715Y-78268271D02*
X124581286Y-78125414D01*
X124581286Y-78125414D02*
X124509858Y-77839700D01*
X124509858Y-77839700D02*
X124509858Y-77482557D01*
X124509858Y-77482557D02*
X124581286Y-77196842D01*
X124581286Y-77196842D02*
X124652715Y-77053985D01*
X124652715Y-77053985D02*
X124724144Y-76982557D01*
X124724144Y-76982557D02*
X124867001Y-76911128D01*
X126295572Y-76911128D02*
X126438429Y-76911128D01*
X126438429Y-76911128D02*
X126581286Y-76982557D01*
X126581286Y-76982557D02*
X126652715Y-77053985D01*
X126652715Y-77053985D02*
X126724143Y-77196842D01*
X126724143Y-77196842D02*
X126795572Y-77482557D01*
X126795572Y-77482557D02*
X126795572Y-77839700D01*
X126795572Y-77839700D02*
X126724143Y-78125414D01*
X126724143Y-78125414D02*
X126652715Y-78268271D01*
X126652715Y-78268271D02*
X126581286Y-78339700D01*
X126581286Y-78339700D02*
X126438429Y-78411128D01*
X126438429Y-78411128D02*
X126295572Y-78411128D01*
X126295572Y-78411128D02*
X126152715Y-78339700D01*
X126152715Y-78339700D02*
X126081286Y-78268271D01*
X126081286Y-78268271D02*
X126009857Y-78125414D01*
X126009857Y-78125414D02*
X125938429Y-77839700D01*
X125938429Y-77839700D02*
X125938429Y-77482557D01*
X125938429Y-77482557D02*
X126009857Y-77196842D01*
X126009857Y-77196842D02*
X126081286Y-77053985D01*
X126081286Y-77053985D02*
X126152715Y-76982557D01*
X126152715Y-76982557D02*
X126295572Y-76911128D01*
X127724143Y-76911128D02*
X127867000Y-76911128D01*
X127867000Y-76911128D02*
X128009857Y-76982557D01*
X128009857Y-76982557D02*
X128081286Y-77053985D01*
X128081286Y-77053985D02*
X128152714Y-77196842D01*
X128152714Y-77196842D02*
X128224143Y-77482557D01*
X128224143Y-77482557D02*
X128224143Y-77839700D01*
X128224143Y-77839700D02*
X128152714Y-78125414D01*
X128152714Y-78125414D02*
X128081286Y-78268271D01*
X128081286Y-78268271D02*
X128009857Y-78339700D01*
X128009857Y-78339700D02*
X127867000Y-78411128D01*
X127867000Y-78411128D02*
X127724143Y-78411128D01*
X127724143Y-78411128D02*
X127581286Y-78339700D01*
X127581286Y-78339700D02*
X127509857Y-78268271D01*
X127509857Y-78268271D02*
X127438428Y-78125414D01*
X127438428Y-78125414D02*
X127367000Y-77839700D01*
X127367000Y-77839700D02*
X127367000Y-77482557D01*
X127367000Y-77482557D02*
X127438428Y-77196842D01*
X127438428Y-77196842D02*
X127509857Y-77053985D01*
X127509857Y-77053985D02*
X127581286Y-76982557D01*
X127581286Y-76982557D02*
X127724143Y-76911128D01*
X129152714Y-76911128D02*
X129295571Y-76911128D01*
X129295571Y-76911128D02*
X129438428Y-76982557D01*
X129438428Y-76982557D02*
X129509857Y-77053985D01*
X129509857Y-77053985D02*
X129581285Y-77196842D01*
X129581285Y-77196842D02*
X129652714Y-77482557D01*
X129652714Y-77482557D02*
X129652714Y-77839700D01*
X129652714Y-77839700D02*
X129581285Y-78125414D01*
X129581285Y-78125414D02*
X129509857Y-78268271D01*
X129509857Y-78268271D02*
X129438428Y-78339700D01*
X129438428Y-78339700D02*
X129295571Y-78411128D01*
X129295571Y-78411128D02*
X129152714Y-78411128D01*
X129152714Y-78411128D02*
X129009857Y-78339700D01*
X129009857Y-78339700D02*
X128938428Y-78268271D01*
X128938428Y-78268271D02*
X128866999Y-78125414D01*
X128866999Y-78125414D02*
X128795571Y-77839700D01*
X128795571Y-77839700D02*
X128795571Y-77482557D01*
X128795571Y-77482557D02*
X128866999Y-77196842D01*
X128866999Y-77196842D02*
X128938428Y-77053985D01*
X128938428Y-77053985D02*
X129009857Y-76982557D01*
X129009857Y-76982557D02*
X129152714Y-76911128D01*
X131438427Y-78411128D02*
X131438427Y-77411128D01*
X131438427Y-77553985D02*
X131509856Y-77482557D01*
X131509856Y-77482557D02*
X131652713Y-77411128D01*
X131652713Y-77411128D02*
X131866999Y-77411128D01*
X131866999Y-77411128D02*
X132009856Y-77482557D01*
X132009856Y-77482557D02*
X132081285Y-77625414D01*
X132081285Y-77625414D02*
X132081285Y-78411128D01*
X132081285Y-77625414D02*
X132152713Y-77482557D01*
X132152713Y-77482557D02*
X132295570Y-77411128D01*
X132295570Y-77411128D02*
X132509856Y-77411128D01*
X132509856Y-77411128D02*
X132652713Y-77482557D01*
X132652713Y-77482557D02*
X132724142Y-77625414D01*
X132724142Y-77625414D02*
X132724142Y-78411128D01*
X133438427Y-78411128D02*
X133438427Y-77411128D01*
X133438427Y-77553985D02*
X133509856Y-77482557D01*
X133509856Y-77482557D02*
X133652713Y-77411128D01*
X133652713Y-77411128D02*
X133866999Y-77411128D01*
X133866999Y-77411128D02*
X134009856Y-77482557D01*
X134009856Y-77482557D02*
X134081285Y-77625414D01*
X134081285Y-77625414D02*
X134081285Y-78411128D01*
X134081285Y-77625414D02*
X134152713Y-77482557D01*
X134152713Y-77482557D02*
X134295570Y-77411128D01*
X134295570Y-77411128D02*
X134509856Y-77411128D01*
X134509856Y-77411128D02*
X134652713Y-77482557D01*
X134652713Y-77482557D02*
X134724142Y-77625414D01*
X134724142Y-77625414D02*
X134724142Y-78411128D01*
X142367000Y-76875001D02*
X142367000Y-79961420D01*
X113367000Y-76875001D02*
X113367000Y-79961420D01*
X142367000Y-79375000D02*
X113367000Y-79375000D01*
X142367000Y-79375000D02*
X113367000Y-79375000D01*
X142367000Y-79375000D02*
X141240496Y-79961421D01*
X142367000Y-79375000D02*
X141240496Y-78788579D01*
X113367000Y-79375000D02*
X114493504Y-78788579D01*
X113367000Y-79375000D02*
X114493504Y-79961421D01*
M02*
